<?xml version="1.0" standalone="no"?>
<!DOCTYPE svg PUBLIC "-//W3C//DTD SVG 1.1//EN" "http://www.w3.org/Graphics/SVG/1.1/DTD/svg11.dtd" >
<svg xmlns="http://www.w3.org/2000/svg">
<metadata>Generated by IcoMoon</metadata>
<defs>
<font id="icomoon" horiz-adv-x="1024">
<font-face units-per-em="1024" ascent="960" descent="-64" />
<missing-glyph horiz-adv-x="1024" />
<glyph unicode="&#x20;" horiz-adv-x="512" d="" />
<glyph unicode="&#xe900;" glyph-name="icon-hints" d="M513.595-64c-283.913 0-513.595 229.682-513.595 510.405s229.682 513.595 513.595 513.595c283.913 0 513.595-229.682 513.595-513.595s-232.872-510.405-513.595-510.405zM513.595 886.629c-242.442 0-440.224-197.782-440.224-440.224s197.782-440.224 440.224-440.224c242.442 0 440.224 197.782 440.224 440.224s-197.782 440.224-440.224 440.224zM328.573 545.296c0 114.841 73.371 191.402 188.212 191.402 95.701 0 172.262-57.421 172.262-159.502 0-73.371-35.090-102.081-70.181-130.791-41.47-35.090-70.181-57.421-70.181-133.981h-86.131c0 92.511 19.14 124.411 60.611 159.502 31.9 28.71 63.801 47.85 63.801 102.081 0 63.801-51.040 86.131-76.561 86.131-66.991 0-95.701-44.66-95.701-118.031h-86.131zM456.174 258.193h105.271v-95.701h-105.271v95.701z" />
<glyph unicode="&#xe901;" glyph-name="icon-share-outline" d="M512-64c-282.318 0-512 229.682-512 512s229.682 512 512 512 512-229.682 512-512c0-282.318-229.682-512-512-512zM512 926.505c-263.178 0-478.505-215.327-478.505-478.505s215.327-478.505 478.505-478.505 478.505 215.327 478.505 478.505-215.327 478.505-478.505 478.505zM167.477 287.701c-4.785 0-7.178 2.393-11.963 4.785-7.178 4.785-7.178 14.355-4.785 21.533l11.963 19.14c95.701 160.299 234.467 246.43 423.477 263.178h4.785v83.738c0 7.178 4.785 11.963 9.57 14.355s11.963 2.393 16.748-2.393l224.897-179.439c4.785-2.393 7.178-7.178 7.178-14.355s-2.393-9.57-7.178-14.355l-220.112-174.654c-4.785-4.785-11.963-4.785-16.748-2.393s-9.57 9.57-9.57 14.355v88.523c-21.533 2.393-43.065 2.393-64.598 2.393-102.879 0-196.187-23.925-275.14-66.991-26.318-14.355-55.028-38.28-76.561-55.028-4.785 0-7.178-2.393-11.963-2.393zM528.748 450.393c23.925 0 47.85 0 69.383-2.393v0h11.963c9.57 0 14.355-7.178 14.355-16.748v-69.383l179.439 143.551-179.439 143.551v-64.598c0-9.57-7.178-16.748-16.748-16.748l-21.533-2.393c-150.729-14.355-267.963-74.168-356.486-186.617 0 0 2.393 0 2.393 2.393 90.916 43.065 189.009 69.383 296.673 69.383z" />
<glyph unicode="&#xe902;" glyph-name="icon-share-bg" d="M513.21 947.896c-275.972 0-501.106-225.135-501.106-501.106s225.135-501.106 501.106-501.106c275.972 0 501.106 225.135 501.106 501.106s-225.135 501.106-501.106 501.106zM607.622 320.908v106.515h-9.683c-24.208 2.421-45.995 2.421-67.783 2.421-106.515 0-203.348-24.208-285.655-70.203-24.208-14.525-53.258-36.312-79.887-58.099 4.842 7.262 7.262 14.525 12.104 19.366 94.411 157.352 227.556 242.080 411.537 259.026l19.366 2.421v99.253l227.556-181.56-227.556-179.139z" />
<glyph unicode="&#xe903;" glyph-name="icon-like-outline" d="M335.738 175.813h-105.518c-9.593 0-16.787 7.194-16.787 16.787v285.377c0 9.593 7.194 16.787 16.787 16.787h105.518c9.593 0 16.787-7.194 16.787-16.787v-285.377c2.398-7.194-7.194-16.787-16.787-16.787zM247.007 211.785h74.342v249.405h-74.342v-249.405zM453.246 197.396c-11.991 0-21.583 2.398-31.176 2.398-11.991 2.398-23.981 0-31.176 7.194l-16.787 16.787c-2.398 2.398-4.796 7.194-4.796 11.991v220.628c0 4.796 2.398 11.991 7.194 14.389 21.583 14.389 35.972 23.981 43.166 31.176 16.787 14.389 93.527 139.091 98.323 158.276 0 14.389-2.398 88.731-2.398 88.731 0 4.796 0 7.194 2.398 9.593 0 2.398 23.981 31.176 74.342 11.991 7.194-2.398 9.593-4.796 11.991-7.194s33.574-62.351 35.972-110.314c0 0 0-2.398 0-4.796s-9.593-67.148-16.787-105.518h175.063c26.379 0 47.963-16.787 47.963-43.166 2.398-19.185-7.194-40.768-26.379-55.157 9.593-9.593 11.991-23.981 11.991-35.972-2.398-16.787-11.991-33.574-26.379-43.166 7.194-9.593 11.991-21.583 11.991-33.574-2.398-16.787-11.991-33.574-26.379-45.564 7.194-9.593 9.593-19.185 9.593-31.176-2.398-26.379-26.379-55.157-67.148-55.157l-280.581-2.398zM410.080 235.766c4.796 0 9.593-2.398 16.787-2.398 7.194-2.398 16.787-2.398 26.379-2.398h280.581c21.583 0 33.574 11.991 33.574 23.981 0 4.796 0 9.593-7.194 11.991-4.796 0-9.593 2.398-11.991 7.194s-4.796 9.593-2.398 14.389l2.398 7.194c2.398 7.194 7.194 11.991 14.389 11.991 11.991 2.398 21.583 14.389 21.583 23.981 0 4.796 0 11.991-11.991 14.389-9.593 2.398-14.389 11.991-11.991 21.583l2.398 7.194c2.398 7.194 7.194 11.991 14.389 11.991 11.991 2.398 21.583 14.389 23.981 23.981 0 2.398 0 9.593-14.389 14.389-9.593 2.398-14.389 11.991-11.991 19.185l2.398 7.194c2.398 7.194 7.194 11.991 14.389 11.991 16.787 2.398 23.981 19.185 23.981 28.778 0 7.194-4.796 11.991-14.389 11.991h-194.248c-4.796 0-9.593 2.398-14.389 7.194-2.398 4.796-4.796 9.593-2.398 14.389 7.194 26.379 19.185 107.916 21.583 122.304-2.398 33.574-21.583 74.342-28.778 91.129-11.991 4.796-19.185 2.398-23.981 0 0-19.185 2.398-69.546 2.398-81.536 0-26.379-88.731-165.471-110.314-182.258-9.593-7.194-21.583-16.787-40.768-28.778v-211.035zM510.801-64c-280.581 0-510.801 230.22-510.801 513.199 0 280.581 230.22 510.801 510.801 510.801s510.801-230.22 510.801-510.801c2.398-282.979-227.822-513.199-510.801-513.199zM510.801 926.426c-263.794 0-477.227-213.433-477.227-477.227s213.433-477.227 477.227-477.227 477.227 213.433 477.227 477.227c2.398 261.396-213.433 477.227-477.227 477.227z" />
<glyph unicode="&#xe904;" glyph-name="icon-like-bg" d="M510.79 947.896c-275.972 0-498.686-222.714-498.686-498.686s222.714-498.686 498.686-498.686c275.972 0 498.686 222.714 498.686 498.686 2.421 275.972-222.714 498.686-498.686 498.686zM341.333 185.343h-121.040v290.496h121.040v-290.496zM794.024 449.21l-2.421-7.262c48.416-14.525 21.787-67.783-12.104-72.624l-2.421-7.262c45.995-12.104 24.208-67.783-12.104-72.624v-7.262c38.733-7.262 29.050-70.203-29.050-70.203h-283.234c-19.366 0-33.891 4.842-48.416 4.842l-14.525 16.946v220.293c0 9.683 33.891 21.787 43.574 31.47 21.787 16.946 104.095 154.931 104.095 171.877s-2.421 91.991-2.421 91.991 16.946 21.787 53.258 4.842c0 0 31.47-60.52 33.891-106.515 0 0-14.525-104.095-21.787-128.303h198.506c48.416 4.842 38.733-62.941-4.842-70.203z" />
<glyph unicode="&#xe905;" glyph-name="icon-accept" d="M344.738 191.362c-5.107 0-10.214 2.554-12.768 5.107-7.661 7.661-7.661 17.875 0 25.536l474.973 474.973c7.661 7.661 17.875 7.661 25.536 0s7.661-17.875 0-25.536l-474.973-472.419c-2.554-5.107-7.661-7.661-12.768-7.661zM357.506 199.022c7.661 7.661 7.661 17.875 0 25.536l-140.449 130.234c-7.661 7.661-17.875 7.661-25.536 0s-7.661-17.875 0-25.536l140.449-130.234c2.554-2.554 7.661-5.107 12.768-5.107 2.554 0 7.661 0 12.768 5.107zM1024 449.277c0 283.451-229.825 510.723-510.723 510.723s-513.277-229.825-513.277-510.723c0-283.451 229.825-510.723 510.723-510.723s513.277 227.272 513.277 510.723zM988.249 449.277c0-263.022-214.504-474.973-474.973-474.973s-477.526 211.95-477.526 474.973c0 260.469 214.504 474.973 474.973 474.973s477.526-214.504 477.526-474.973z" />
<glyph unicode="&#xe906;" glyph-name="icon-cancel" d="M306.434 224.559c-5.107 0-10.214 2.554-12.768 5.107-7.661 7.661-7.661 17.875 0 25.536l408.579 408.579c7.661 7.661 17.875 7.661 25.536 0s7.661-17.875 0-25.536l-408.579-408.579c-2.554-2.554-7.661-5.107-12.768-5.107zM730.334 229.666c7.661 7.661 7.661 17.875 0 25.536l-408.579 408.579c-7.661 7.661-17.875 7.661-25.536 0s-7.661-17.875 0-25.536l408.579-408.579c2.554-2.554 7.661-5.107 12.768-5.107s7.661 2.554 12.768 5.107zM1024 449.277c0 283.451-229.825 510.723-510.723 510.723-283.451 0-513.277-229.825-513.277-510.723 0-283.451 229.825-510.723 510.723-510.723 283.451-2.554 513.277 227.272 513.277 510.723zM988.249 449.277c0-263.022-214.504-474.973-474.973-474.973s-477.526 211.95-477.526 474.973c0 260.469 214.504 474.973 474.973 474.973s477.526-214.504 477.526-474.973z" />
<glyph unicode="&#xe907;" glyph-name="icon-trash" d="M510.723-64c-283.451 0-510.723 229.825-510.723 510.723 0 283.451 229.825 513.277 510.723 513.277 283.451 0 510.723-229.825 510.723-510.723 2.554-283.451-227.272-513.277-510.723-513.277zM510.723 924.249c-260.469 0-474.973-214.504-474.973-474.973 0-263.022 214.504-474.973 474.973-474.973s477.526 211.95 477.526 474.973c0 260.469-214.504 474.973-477.526 474.973zM676.708 188.808h-331.97l-25.536 446.883h380.489l-22.983-446.883zM380.489 227.112h263.022l20.429 372.828h-303.88l20.429-372.828zM745.656 635.691h-56.18v-35.751h58.733v35.751zM337.077 635.691h-58.733v-35.751h58.733v35.751zM602.653 707.192h-183.86v-56.18h35.751v20.429h112.359v-20.429h35.751v56.18zM485.187 313.935l-15.322 176.2-35.751-2.554 15.322-176.2 35.751 2.554zM592.439 485.027l-35.751 2.554-15.322-176.2 35.751-2.554 15.322 176.2z" />
<glyph unicode="&#xe908;" glyph-name="icon-add" d="M510.723-64c-283.451 0-510.723 229.825-510.723 510.723 0 283.451 229.825 513.277 510.723 513.277s510.723-229.825 510.723-510.723c2.554-283.451-227.272-513.277-510.723-513.277zM510.723 924.249c-260.469 0-474.973-214.504-474.973-474.973 0-263.022 214.504-474.973 474.973-474.973s477.526 211.95 477.526 474.973c0 260.469-214.504 474.973-477.526 474.973zM531.152 684.209h-35.751v-469.865h35.751v469.865zM748.209 467.152h-472.419v-35.751h469.865v35.751z" />
<glyph unicode="&#xe909;" glyph-name="icon-block" d="M191.521 73.895l-25.536 25.536 689.476 725.227 25.536-25.536-689.476-725.227zM1024 449.277c0 283.451-229.825 510.723-510.723 510.723-283.451 0-513.277-229.825-513.277-510.723 0-283.451 229.825-510.723 510.723-510.723 283.451-2.554 513.277 227.272 513.277 510.723zM988.249 449.277c0-263.022-214.504-474.973-474.973-474.973s-477.526 211.95-477.526 474.973c0 260.469 214.504 474.973 474.973 474.973s477.526-214.504 477.526-474.973z" />
<glyph unicode="&#xe90a;" glyph-name="icon-next" d="M513.193-64c-284.047 0-513.193 229.147-513.193 510.807s229.147 513.193 513.193 513.193 513.193-229.147 513.193-513.193-231.534-510.807-513.193-510.807zM513.193 926.583c-264.951 0-477.389-214.825-477.389-477.389s214.825-477.389 477.389-477.389 477.389 214.825 477.389 477.389-214.825 477.389-477.389 477.389zM780.531 444.42c0 9.548-7.161 16.709-16.709 16.709h-525.128c-9.548 0-16.709-7.161-16.709-16.709s7.161-16.709 16.709-16.709h525.128c9.548 0 16.709 7.161 16.709 16.709zM584.802 229.594l202.89 202.89c7.161 7.161 7.161 16.709 0 23.869l-202.89 202.89c-7.161 7.161-16.709 7.161-23.869 0s-7.161-16.709 0-23.869l190.956-190.956-190.956-190.956c-7.161-7.161-7.161-16.709 0-23.869 2.387-2.387 7.161-4.774 11.935-4.774s7.161 2.387 11.935 4.774z" />
<glyph unicode="&#xe90b;" glyph-name="icon-back" d="M513.193-64c-284.047 0-513.193 229.147-513.193 510.807s229.147 513.193 513.193 513.193 513.193-229.147 513.193-513.193-231.534-510.807-513.193-510.807zM513.193 926.583c-264.951 0-477.389-214.825-477.389-477.389s214.825-477.389 477.389-477.389 477.389 214.825 477.389 477.389-214.825 477.389-477.389 477.389zM804.401 451.58c0 9.548-7.161 16.709-16.709 16.709h-525.128c-9.548 0-16.709-7.161-16.709-16.709s7.161-16.709 16.709-16.709h525.128c7.161 0 16.709 7.161 16.709 16.709zM465.455 236.755c7.161 7.161 7.161 16.709 0 23.869l-190.956 190.956 190.956 190.956c7.161 7.161 7.161 16.709 0 23.869s-16.709 7.161-23.869 0l-202.89-202.89c-7.161-7.161-7.161-16.709 0-23.869l202.89-202.89c2.387-2.387 7.161-4.774 11.935-4.774s7.161 2.387 11.935 4.774z" />
<glyph unicode="&#xe90c;" glyph-name="icon-call-mobile" d="M510.801-64c-280.581 0-510.801 230.22-510.801 513.199 0 280.581 230.22 510.801 510.801 510.801 282.979 0 510.801-230.22 510.801-510.801 2.398-282.979-227.822-513.199-510.801-513.199zM510.801 926.426c-263.794 0-477.227-213.433-477.227-477.227s213.433-477.227 477.227-477.227 477.227 213.433 477.227 477.227c2.398 261.396-213.433 477.227-477.227 477.227zM671.475 103.869h-318.951c-38.37 0-69.546 31.176-69.546 69.546v541.977c0 38.37 31.176 69.546 69.546 69.546h318.951c38.37 0 69.546-31.176 69.546-69.546v-541.977c0-40.768-31.176-69.546-69.546-69.546zM352.525 748.965c-19.185 0-33.574-16.787-33.574-33.574v-541.977c0-19.185 16.787-33.574 33.574-33.574h318.951c19.185 0 33.574 16.787 33.574 33.574v541.977c0 19.185-16.787 33.574-33.574 33.574h-318.951zM510.801 226.173c-16.787 0-31.176-14.389-31.176-31.176s14.389-31.176 31.176-31.176c16.787 0 31.176 14.389 31.176 31.176s-11.991 31.176-31.176 31.176v0zM645.096 252.553h-266.192c-9.593 0-16.787 7.194-16.787 16.787v383.7c0 9.593 7.194 16.787 16.787 16.787h266.192c9.593 0 16.787-7.194 16.787-16.787v-383.7c0-9.593-7.194-16.787-16.787-16.787zM395.691 286.126h232.618v350.126h-232.618v-350.126z" />
<glyph unicode="&#xe90d;" glyph-name="icon-call-office" d="M510.801-64c-280.581 0-510.801 230.22-510.801 513.199 0 280.581 230.22 510.801 510.801 510.801 282.979 0 510.801-230.22 510.801-510.801 2.398-282.979-227.822-513.199-510.801-513.199zM510.801 926.426c-263.794 0-477.227-213.433-477.227-477.227s213.433-477.227 477.227-477.227 477.227 213.433 477.227 477.227c2.398 261.396-213.433 477.227-477.227 477.227zM412.478 113.461c0-9.593-2.398-19.185-4.796-28.778-4.796-7.194-9.593-14.389-16.787-19.185s-14.389-7.194-23.981-7.194c-9.593 0-16.787 2.398-23.981 7.194s-11.991 9.593-16.787 19.185c-4.796 7.194-4.796 16.787-4.796 28.778v7.194c0 9.593 2.398 19.185 4.796 28.778s9.593 14.389 16.787 19.185 14.389 7.194 23.981 7.194c9.593 0 16.787-2.398 23.981-7.194s11.991-9.593 16.787-19.185c4.796-7.194 4.796-16.787 4.796-28.778v-7.194zM393.293 118.258c0 11.991-2.398 21.583-7.194 28.778s-11.991 9.593-19.185 9.593c-7.194 0-14.389-2.398-19.185-9.593s-7.194-14.389-7.194-26.379v-7.194c0-11.991 2.398-21.583 7.194-28.778s11.991-9.593 19.185-9.593c7.194 0 14.389 2.398 19.185 9.593s7.194 16.787 7.194 28.778v4.796zM436.459 60.703v67.148h-11.991v14.389h11.991v7.194c0 9.593 2.398 16.787 7.194 21.583s11.991 7.194 21.583 7.194c2.398 0 7.194 0 9.593-2.398v-14.389c-2.398 0-4.796 0-7.194 0-9.593 0-11.991-4.796-11.991-14.389v-7.194h16.787v-14.389h-16.787v-67.148h-19.185zM489.218 60.703v67.148h-11.991v14.389h11.991v7.194c0 9.593 2.398 16.787 7.194 21.583s11.991 7.194 21.583 7.194c2.398 0 7.194 0 9.593-2.398v-14.389c-2.398 0-4.796 0-7.194 0-9.593 0-11.991-4.796-11.991-14.389v-7.194h16.787v-14.389h-16.787v-67.148h-19.185zM537.18 163.822c0 2.398 0 4.796 2.398 7.194s4.796 2.398 7.194 2.398 4.796 0 7.194-2.398 2.398-4.796 2.398-7.194c0-2.398 0-4.796-2.398-7.194s-4.796-2.398-7.194-2.398-4.796 0-7.194 2.398c0 2.398-2.398 4.796-2.398 7.194zM556.365 60.703h-19.185v81.536h19.185v-81.536zM609.124 75.091c4.796 0 7.194 2.398 11.991 4.796s4.796 4.796 4.796 9.593h16.787c0-4.796-2.398-9.593-4.796-14.389s-7.194-7.194-11.991-9.593c-4.796-2.398-9.593-4.796-16.787-4.796-11.991 0-19.185 4.796-26.379 11.991s-9.593 16.787-9.593 31.176v2.398c0 11.991 2.398 21.583 9.593 28.778s14.389 11.991 26.379 11.991c9.593 0 16.787-2.398 23.981-9.593s9.593-11.991 9.593-21.583h-16.787c0 4.796-2.398 9.593-4.796 11.991s-7.194 4.796-11.991 4.796c-4.796 0-9.593-2.398-14.389-7.194-2.398-4.796-4.796-9.593-4.796-19.185v-2.398c0-9.593 2.398-14.389 4.796-19.185 4.796-7.194 9.593-9.593 14.389-9.593zM693.059 60.703c-11.991 0-21.583 4.796-28.778 11.991s-9.593 16.787-9.593 28.778v2.398c0 7.194 2.398 14.389 4.796 21.583s7.194 11.991 11.991 14.389c4.796 2.398 11.991 4.796 19.185 4.796 11.991 0 19.185-2.398 26.379-9.593s9.593-16.787 9.593-28.778v-9.593h-55.157c0-7.194 2.398-11.991 7.194-16.787s9.593-4.796 14.389-4.796c7.194 0 14.389 2.398 19.185 9.593l9.593-9.593c-2.398-4.796-7.194-9.593-11.991-11.991s-9.593-2.398-16.787-2.398zM690.66 130.248c-4.796 0-9.593-2.398-11.991-4.796s-4.796-7.194-4.796-14.389h33.574v2.398c0 7.194-2.398 9.593-4.796 14.389-2.398 0-7.194 2.398-11.991 2.398zM645.096 302.913c-7.194 0-14.389 2.398-21.583 4.796-23.981 9.593-115.11 45.564-196.646 124.703-71.944 69.546-110.314 153.48-127.101 196.646-7.194 21.583 0 45.564 14.389 59.953l57.555 55.157c14.389 14.389 38.37 14.389 52.759 0l74.342-71.944c0 0 0 0 0 0 14.389-14.389 14.389-38.37 0-52.759l-35.972-35.972c7.194-14.389 26.379-45.564 50.361-71.944 23.981-23.981 55.157-43.166 69.546-50.361l35.972 35.972c14.389 14.389 38.37 14.389 52.759 0l67.148-69.546c14.389-14.389 14.389-38.37 0-52.759l-55.157-55.157c-7.194-11.991-21.583-16.787-38.37-16.787zM398.089 720.187c0 0-2.398 0-2.398-2.398l-55.157-55.157c-7.194-7.194-9.593-16.787-7.194-26.379 14.389-40.768 50.361-117.508 117.508-184.656 76.74-74.342 160.674-110.314 184.656-117.508 9.593-4.796 16.787-2.398 23.981 4.796l55.157 55.157c2.398 2.398 2.398 4.796 0 4.796l-67.148 69.546c0 0-4.796 0-4.796 0l-43.166-38.37c-4.796-4.796-11.991-7.194-19.185-2.398-2.398 0-52.759 21.583-91.129 62.351s-62.351 88.731-62.351 91.129c-2.398 7.194-2.398 14.389 2.398 19.185l43.166 43.166c2.398 2.398 2.398 4.796 0 4.796l-74.342 71.944c2.398 0 0 0 0 0z" />
<glyph unicode="&#xe90e;" glyph-name="icon-call" d="M510.801-64c-280.581 0-510.801 230.22-510.801 513.199 0 280.581 230.22 510.801 510.801 510.801s510.801-230.22 510.801-510.801c2.398-282.979-227.822-513.199-510.801-513.199zM510.801 926.426c-263.794 0-477.227-213.433-477.227-477.227s213.433-477.227 477.227-477.227 477.227 213.433 477.227 477.227c2.398 261.396-213.433 477.227-477.227 477.227zM484.422 96.674c0-11.991-4.796-21.583-11.991-26.379-7.194-7.194-16.787-9.593-28.778-9.593-9.593 0-16.787 2.398-23.981 7.194s-11.991 9.593-14.389 16.787c-2.398 7.194-4.796 16.787-4.796 26.379v9.593c0 9.593 2.398 19.185 4.796 26.379 4.796 7.194 9.593 14.389 16.787 19.185s14.389 7.194 23.981 7.194c11.991 0 21.583-2.398 28.778-9.593s11.991-16.787 11.991-28.778h-19.185c0 7.194-2.398 14.389-7.194 16.787s-9.593 4.796-16.787 4.796c-7.194 0-14.389-2.398-19.185-9.593s-7.194-14.389-7.194-26.379v-9.593c0-11.991 2.398-21.583 7.194-26.379s9.593-9.593 19.185-9.593c7.194 0 11.991 2.398 16.787 4.796s7.194 9.593 7.194 16.787h16.787zM549.171 60.703c0 2.398-2.398 4.796-2.398 7.194-4.796-7.194-11.991-9.593-21.583-9.593-7.194 0-14.389 2.398-19.185 7.194s-7.194 9.593-7.194 16.787c0 9.593 2.398 14.389 9.593 19.185s16.787 7.194 26.379 7.194h11.991v4.796c0 4.796 0 7.194-2.398 9.593s-4.796 4.796-9.593 4.796c-4.796 0-7.194 0-9.593-2.398s-4.796-4.796-4.796-7.194h-19.185c0 4.796 2.398 9.593 4.796 11.991s7.194 7.194 11.991 9.593c4.796 2.398 9.593 2.398 16.787 2.398 9.593 0 16.787-2.398 21.583-7.194s9.593-11.991 9.593-19.185v-35.972c0-7.194 0-11.991 2.398-16.787v-2.398h-19.185zM529.986 75.091c4.796 0 7.194 0 9.593 2.398s4.796 4.796 7.194 7.194v14.389h-9.593c-7.194 0-11.991 0-14.389-2.398s-4.796-4.796-4.796-9.593c0-2.398 0-7.194 2.398-7.194s4.796-4.796 9.593-4.796zM601.93 60.703h-19.185v115.11h19.185v-115.11zM642.698 60.703h-19.185v115.11h19.185v-115.11zM743.419 732.178l-237.415 115.11c-26.379 11.991-59.953 0-74.342-28.778l-194.248-402.885c-14.389-28.778-2.398-62.351 26.379-76.74l237.415-115.11c28.778-14.389 62.351-2.398 76.74 26.379l194.248 402.885c11.991 31.176 0 64.749-28.778 79.138zM402.885 326.895c-14.389 7.194-19.185 21.583-11.991 35.972s21.583 19.185 35.972 11.991c14.389-7.194 19.185-21.583 11.991-35.972-4.796-11.991-21.583-19.185-35.972-11.991zM570.754 346.080c-2.398-7.194-11.991-9.593-19.185-7.194l-232.618 112.712c-7.194 2.398-9.593 11.991-7.194 19.185l136.693 285.377c2.398 7.194 11.991 9.593 19.185 7.194l232.618-112.712c7.194-2.398 9.593-11.991 7.194-19.185l-136.693-285.377zM460.44 629.059c-14.389 7.194-28.778 0-35.972-11.991-7.194-14.389 0-28.778 11.991-35.972 14.389-7.194 28.778 0 35.972 11.991s2.398 28.778-11.991 35.972zM532.384 593.087c-14.389 7.194-28.778 0-35.972-11.991-7.194-14.389 0-28.778 11.991-35.972 14.389-7.194 28.778 0 35.972 11.991s2.398 31.176-11.991 35.972zM604.328 559.513c-14.389 7.194-28.778 0-35.972-11.991s0-28.778 11.991-35.972 28.778 0 35.972 11.991c7.194 14.389 0 28.778-11.991 35.972z" />
<glyph unicode="&#xe90f;" glyph-name="icon-mail" d="M510.801-64c-281.072 1.365-508.397 229.533-508.397 510.795 0 282.108 228.693 510.801 510.801 510.801 281.262 0 509.43-227.325 510.795-508.266 0.001-283.563-229.767-513.33-513.199-513.33zM510.801 926.426c-262.532-1.361-474.829-214.499-474.829-477.221 0-263.565 213.662-477.227 477.227-477.227 263.563 0 477.224 213.659 477.227 477.221-1.362 263.857-215.573 477.227-479.619 477.227-0.002 0-0.004 0-0.006 0zM776.993 240.562h-527.588c-9.271 0-16.787 7.516-16.787 16.787v381.302c0 9.271 7.516 16.787 16.787 16.787h527.588c9.271 0 16.787-7.516 16.787-16.787v-381.302c0-9.271-7.516-16.787-16.787-16.787zM266.192 274.136h491.616v347.728h-491.616v-347.728zM510.801 379.653l-9.593 4.796-263.794 242.211c-3.069 3.069-4.967 7.308-4.967 11.991 0 9.365 7.592 16.957 16.957 16.957 4.683 0 8.922-1.898 11.991-4.967l251.803-230.22 251.803 230.22c3.069 3.069 7.308 4.967 11.991 4.967 9.365 0 16.957-7.592 16.957-16.957 0-4.683-1.898-8.922-4.967-11.991l-266.192-242.211z" />
<glyph unicode="&#xe910;" glyph-name="icon-website" d="M510.801-64c-280.581 0-510.801 230.22-510.801 513.199 0 280.581 230.22 510.801 510.801 510.801 282.979 0 510.801-230.22 510.801-510.801 2.398-282.979-227.822-513.199-510.801-513.199zM510.801 926.426c-263.794 0-477.227-213.433-477.227-477.227s213.433-477.227 477.227-477.227 477.227 213.433 477.227 477.227c2.398 261.396-213.433 477.227-477.227 477.227zM378.904 425.218l21.583 103.119h23.981l-31.176-136.693h-23.981l-26.379 100.721-26.379-100.721h-23.981l-31.176 136.693h23.981l21.583-103.119 26.379 103.119h19.185l26.379-103.119zM549.171 425.218l21.583 103.119h23.981l-31.176-136.693h-23.981l-26.379 100.721-26.379-100.721h-23.981l-31.176 136.693h23.981l21.583-103.119 26.379 103.119h19.185l26.379-103.119zM719.438 425.218l21.583 103.119h23.981l-31.176-136.693h-23.981l-26.379 100.721-26.379-100.721h-23.981l-31.176 136.693h23.981l21.583-103.119 26.379 103.119h19.185l26.379-103.119z" />
<glyph unicode="&#xe911;" glyph-name="icon-qr" d="M510.801-64c-280.581 0-510.801 230.22-510.801 513.199 0 280.581 230.22 510.801 510.801 510.801 282.979 0 510.801-230.22 510.801-510.801 2.398-282.979-227.822-513.199-510.801-513.199zM510.801 926.426c-263.794 0-477.227-213.433-477.227-477.227s213.433-477.227 477.227-477.227c263.794 0 477.227 213.433 477.227 477.227 2.398 261.396-213.433 477.227-477.227 477.227zM268.59 559.513v136.693h134.295v-136.693h-134.295zM287.775 578.698h95.925v95.925h-95.925v-95.925zM424.468 677.021h19.185v19.185h-19.185zM522.792 597.883h38.37v38.37h19.185v19.185h-19.185v21.583h38.37v19.185h-57.555v-19.185h-40.768v-21.583h40.768v-38.37h-19.185v-19.185zM618.717 559.513v136.693h134.295v-136.693h-134.295zM637.902 578.698h95.925v95.925h-95.925v-95.925zM306.96 597.883h59.953v57.555h-59.953v-57.555zM424.468 636.253h19.185v19.185h-19.185zM462.838 521.143h19.185v57.555h19.185v-38.37h21.583v57.555h-21.583v19.185h-19.185v19.185h19.185v19.185h-38.37v-38.37h-19.185v-19.185h-19.185v-38.37h19.185v19.185h19.185v-19.185h-19.185v-19.185h19.185v-19.185zM657.087 597.883h59.953v57.555h-59.953v-57.555zM501.208 617.068h21.583v19.185h-21.583zM637.902 228.571v21.583h19.185v19.185h-19.185v19.185h-19.185v-19.185h-57.555v38.37h19.185v76.74h-19.185v-38.37h-38.37v38.37h19.185v19.185h-19.185v-19.185h-38.37v19.185h19.185v57.555h19.185v19.185h19.185v-38.37h-19.185v-19.185h38.37v19.185h19.185v19.185h38.37v19.185h-19.185v19.185h-19.185v19.185h-19.185v-19.185h-38.37v38.37h19.185v38.37h19.185v-19.185h19.185v76.74h19.185v-115.11h38.37v19.185h19.185v-38.37h-19.185v-19.185h19.185v19.185h19.185v19.185h19.185v-19.185h19.185v-19.185h-19.185v-19.185h-38.37v-19.185h-19.185v-19.185h-19.185v19.185h-19.185v-19.185h-19.185v-19.185h19.185v-19.185h19.185v19.185h19.185v-19.185h38.37v-40.768h19.185v-19.185h-19.185v-19.185h19.185v-19.185h19.185v38.37h19.185v-19.185h19.185v-19.185h-19.185v-19.185h19.185v-19.185h-38.37v19.185h-38.37v-38.37h-38.37zM599.532 307.71h57.555v57.555h-57.555v-57.555zM268.59 521.143h19.185v19.185h-19.185zM306.96 521.143h19.185v19.185h-19.185zM386.098 521.143h38.37v19.185h-38.37v-19.185zM695.457 521.143h21.583v19.185h-21.583zM736.225 482.773h19.185v57.555h-19.185v-19.185h-19.185v-19.185h19.185v-19.185zM287.775 501.958h19.185v19.185h-19.185zM347.728 501.958h19.185v19.185h-19.185zM424.468 482.773h19.185v38.37h-19.185v-38.37zM326.145 482.773h21.583v19.185h-21.583zM386.098 482.773h19.185v19.185h-19.185zM462.838 461.19h38.37v40.768h-38.37v-40.768zM561.162 461.19h19.185v40.768h-19.185v-40.768zM268.59 403.635h38.37v19.185h19.185v19.185h-19.185v40.768h-38.37v-40.768h19.185v-19.185h-19.185v-19.185zM347.728 461.19h19.185v21.583h-19.185zM405.283 461.19h19.185v21.583h-19.185zM424.468 326.895h38.37v19.185h-19.185v19.185h19.185v38.37h-19.185v19.185h-19.185v-19.185h-19.185v-19.185h-19.185v19.185h19.185v19.185h-19.185v19.185h19.185v19.185h-38.37v-57.555h-19.185v19.185h-21.583v-19.185h-19.185v-19.185h19.185v-19.185h21.583v19.185h19.185v-19.185h57.555v-38.37zM736.225 403.635h19.185v57.555h-19.185v-19.185h-19.185v-19.185h19.185v-19.185zM405.283 422.82h19.185v19.185h-19.185zM462.838 422.82h19.185v19.185h-19.185zM657.087 403.635h59.953v19.185h-59.953v-19.185zM268.59 365.265h38.37v19.185h-38.37v-19.185zM717.040 365.265h19.185v19.185h-19.185zM462.838 346.080h19.185v19.185h-19.185zM695.457 346.080h21.583v19.185h-21.583zM736.225 326.895h19.185v38.37h-19.185v-38.37zM268.59 209.386v134.295h134.295v-134.295h-134.295zM287.775 228.571h95.925v95.925h-95.925v-95.925zM482.023 326.895h19.185v19.185h-19.185zM618.717 326.895h19.185v19.185h-19.185zM522.792 209.386v19.185h19.185v19.185h-19.185v-19.185h-57.555v19.185h-38.37v19.185h19.185v38.37h19.185v19.185h19.185v-19.185h38.37v19.185h19.185v-38.37h-19.185v-19.185h38.37v-57.555h-38.37zM482.023 247.756h19.185v38.37h-19.185v-38.37zM306.96 247.756h59.953v59.953h-59.953v-59.953zM580.347 209.386h57.555v19.185h-19.185v19.185h-38.37v-38.37zM424.468 209.386h19.185v19.185h-19.185zM676.272 209.386h19.185v19.185h-19.185zM736.225 209.386h19.185v19.185h-19.185z" />
<glyph unicode="&#xe912;" glyph-name="icon-call-mobile2" d="M510.801-64c-280.581 0-510.801 230.22-510.801 513.199 0 280.581 230.22 510.801 510.801 510.801s510.801-230.22 510.801-510.801c2.398-282.979-227.822-513.199-510.801-513.199zM510.801 926.426c-263.794 0-477.227-213.433-477.227-477.227s213.433-477.227 477.227-477.227 477.227 213.433 477.227 477.227c2.398 261.396-213.433 477.227-477.227 477.227zM685.864 108.665h-318.951c-38.37 0-69.546 31.176-69.546 69.546v541.977c0 38.37 31.176 69.546 69.546 69.546h318.951c38.37 0 69.546-31.176 69.546-69.546v-541.977c0-38.37-31.176-69.546-69.546-69.546zM366.913 753.761c-19.185 0-33.574-16.787-33.574-33.574v-541.977c0-19.185 16.787-33.574 33.574-33.574h318.951c19.185 0 33.574 16.787 33.574 33.574v541.977c0 19.185-16.787 33.574-33.574 33.574h-318.951zM525.19 230.97c-16.787 0-31.176-14.389-31.176-31.176s14.389-31.176 31.176-31.176c16.787 0 31.176 14.389 31.176 31.176 2.398 16.787-11.991 31.176-31.176 31.176v0zM683.466 257.349h-314.155c-9.593 0-16.787 7.194-16.787 16.787v383.7c0 9.593 7.194 16.787 16.787 16.787h314.155c9.593 0 16.787-7.194 16.787-16.787v-383.7c0-9.593-7.194-16.787-16.787-16.787zM386.098 290.923h280.581v352.525h-280.581v-352.525zM940.066 487.569h-199.044v-33.574h199.044v33.574zM964.047 470.782l-110.314 110.314-23.981-23.981 86.333-86.333-86.333-86.333 23.981-23.981 110.314 110.314zM508.403 537.93l-38.37 38.37c-4.796 4.796-11.991 4.796-14.389 0l-28.778-28.778c-4.796-4.796-7.194-14.389-4.796-21.583 7.194-21.583 26.379-64.749 64.749-100.721s79.138-57.555 100.721-64.749c7.194-2.398 16.787 0 21.583 4.796l28.778 28.778c4.796 4.796 4.796 11.991 0 14.389l-38.37 38.37c-4.796 4.796-11.991 4.796-14.389 0l-23.981-23.981c0 0-26.379 11.991-45.564 31.176s-31.176 45.564-31.176 45.564l23.981 23.981c4.796 4.796 4.796 9.593 0 14.389v0z" />
<glyph unicode="&#xe913;" glyph-name="icon-scan-other" d="M510.801-64c-280.581 0-510.801 230.22-510.801 513.199 0 280.581 230.22 510.801 510.801 510.801 282.979 0 510.801-230.22 510.801-510.801 2.398-282.979-227.822-513.199-510.801-513.199zM510.801 926.426c-263.794 0-477.227-213.433-477.227-477.227s213.433-477.227 477.227-477.227 477.227 213.433 477.227 477.227c2.398 261.396-213.433 477.227-477.227 477.227zM834.548 216.581h-645.096v378.904h158.276l16.787 103.119h294.97l16.787-103.119h158.276v-378.904zM223.026 250.155h577.948v311.756h-153.48l-16.787 103.119h-237.415l-16.787-103.119h-153.48v-311.756zM510.801 312.506c-64.749 0-119.906 52.759-119.906 117.508s52.759 117.508 119.906 117.508 119.906-52.759 119.906-117.508-52.759-117.508-119.906-117.508zM510.801 516.347c-47.963 0-83.934-38.37-83.934-83.934s38.37-83.934 83.934-83.934c47.963 0 83.934 38.37 83.934 83.934s-35.972 83.934-83.934 83.934z" />
<glyph unicode="&#xe914;" glyph-name="icon-nearby" d="M510.801-64c-280.581 0-510.801 230.22-510.801 513.199 0 280.581 230.22 510.801 510.801 510.801s510.801-230.22 510.801-510.801c2.398-282.979-227.822-513.199-510.801-513.199zM510.801 926.426c-263.794 0-477.227-213.433-477.227-477.227s213.433-477.227 477.227-477.227 477.227 213.433 477.227 477.227c2.398 261.396-213.433 477.227-477.227 477.227zM513.199 319.7c-35.972 0-67.148-28.778-67.148-67.148s28.778-67.148 67.148-67.148c35.972 0 67.148 28.778 67.148 67.148s-31.176 67.148-67.148 67.148zM199.044 530.735c74.342 100.721 189.452 158.276 314.155 158.276s237.415-57.555 311.756-155.878c7.194-9.593 19.185-9.593 28.778-4.796 9.593 7.194 9.593 19.185 4.796 28.778-81.536 107.916-208.637 170.267-345.33 170.267s-266.192-64.749-347.728-175.063c-7.194-9.593-4.796-21.583 4.796-28.778 4.796-2.398 7.194-4.796 11.991-4.796 4.796 2.398 11.991 4.796 16.787 11.991zM282.979 432.412c50.361 76.74 136.693 122.304 230.22 122.304 91.129 0 177.461-45.564 227.822-119.906 7.194-9.593 19.185-11.991 28.778-4.796s11.991 19.185 4.796 28.778c-59.953 86.333-155.878 139.091-261.396 139.091s-203.841-52.759-263.794-141.489c-7.194-9.593-4.796-21.583 4.796-28.778 2.398-2.398 7.194-2.398 11.991-2.398 7.194 0 14.389 2.398 16.787 7.194zM681.068 326.895c9.593 4.796 14.389 16.787 9.593 26.379-33.574 69.546-103.119 112.712-177.461 112.712s-146.286-43.166-177.461-112.712c-4.796-9.593 0-21.583 9.593-26.379s21.583 0 26.379 9.593c26.379 55.157 81.536 88.731 141.489 88.731s115.11-35.972 141.489-88.731c2.398-7.194 11.991-11.991 19.185-11.991 2.398 0 4.796 0 7.194 2.398z" />
<glyph unicode="&#xe915;" glyph-name="icon-share2" d="M510.801-64c-280.581 0-510.801 230.22-510.801 513.199 0 280.581 230.22 510.801 510.801 510.801 282.979 0 510.801-230.22 510.801-510.801 2.398-282.979-227.822-513.199-510.801-513.199zM510.801 926.426c-263.794 0-477.227-213.433-477.227-477.227s213.433-477.227 477.227-477.227 477.227 213.433 477.227 477.227c2.398 261.396-213.433 477.227-477.227 477.227zM750.614 504.356v165.471c0 9.593-7.194 16.787-16.787 16.787h-165.471c-9.593 0-16.787-7.194-16.787-16.787s7.194-16.787 16.787-16.787h148.684v-148.684c0-9.593 7.194-16.787 16.787-16.787s16.787 7.194 16.787 16.787zM496.412 408.431l249.405 249.405c7.194 7.194 7.194 16.787 0 23.981s-16.787 7.194-23.981 0l-249.405-249.405c-7.194-7.194-7.194-16.787 0-23.981 2.398-2.398 7.194-4.796 11.991-4.796s9.593 2.398 11.991 4.796zM750.614 226.173v172.665c0 9.593-7.194 16.787-16.787 16.787s-16.787-7.194-16.787-16.787v-155.878h-410.080v410.080h155.878c9.593 0 16.787 7.194 16.787 16.787s-7.194 16.787-16.787 16.787h-172.665c-9.593 0-16.787-7.194-16.787-16.787v-443.653c0-9.593 7.194-16.787 16.787-16.787h443.653c9.593 0 16.787 7.194 16.787 16.787z" />
<glyph unicode="&#xe916;" glyph-name="icon-save-contact" d="M510.79-64c-280.813 0-510.79 229.976-510.79 513.21s229.976 510.79 510.79 510.79 510.79-229.976 510.79-510.79-227.556-513.21-510.79-513.21zM510.79 935.792c-268.709 0-486.582-217.872-486.582-486.582s217.872-486.582 486.582-486.582c268.709 0 486.582 217.872 486.582 486.582s-217.872 486.582-486.582 486.582zM682.667 717.92h-261.447c-31.47 0-55.678-24.208-55.678-55.678v-443.007c0-31.47 24.208-55.678 55.678-55.678h261.447c31.47 0 55.678 24.208 55.678 55.678v443.007c0 31.47-24.208 55.678-55.678 55.678zM551.943 211.972c-14.525 0-26.629 12.104-26.629 26.629s12.104 26.629 26.629 26.629c14.525 0 26.629-12.104 26.629-26.629s-12.104-26.629-26.629-26.629zM694.771 301.541c0-7.262-7.262-14.525-14.525-14.525h-256.605c-7.262 0-14.525 7.262-14.525 14.525v314.704c0 7.262 7.262 14.525 14.525 14.525h256.605c7.262 0 14.525-7.262 14.525-14.525v-314.704zM360.7 446.79h-181.56v-33.891h181.56v33.891zM384.908 429.844l-94.411 91.991-24.208-24.208 67.783-67.783-67.783-70.203 24.208-24.208 94.411 94.411zM641.513 383.849c-12.104 4.842-38.733 14.525-55.678 19.366-2.421 0-2.421 0-2.421 7.262 0 4.842 2.421 9.683 4.842 14.525s4.842 12.104 4.842 19.366c2.421 2.421 7.262 9.683 7.262 19.366 2.421 9.683 0 14.525 0 16.946 0 0 0 0 0 0 0 2.421 0 14.525 2.421 24.208 0 7.262 0 19.366-9.683 31.47-4.842 7.262-16.946 16.946-36.312 16.946h-9.683c-19.366-2.421-29.050-9.683-36.312-16.946-9.683-12.104-9.683-24.208-9.683-31.47 2.421-9.683 2.421-21.787 2.421-24.208 0 0 0 0 0 0-2.421-2.421-2.421-7.262 0-16.946 2.421-12.104 4.842-16.946 7.262-19.366 0-7.262 2.421-14.525 4.842-19.366 2.421-2.421 2.421-7.262 2.421-14.525 0-4.842 0-7.262-2.421-7.262-16.946-4.842-45.995-14.525-55.678-19.366-7.262-2.421-9.683-9.683-9.683-14.525s0-21.787 0-26.629 2.421-9.683 9.683-9.683c7.262 0 55.678 0 77.466 0 7.262 0 12.104 0 12.104 0h2.421c0 0 4.842 0 12.104 0 21.787 0 72.624 0 77.466 0 7.262 0 9.683 7.262 9.683 9.683s0 21.787 0 26.629-2.421 9.683-9.683 14.525z" />
<glyph unicode="&#xe917;" glyph-name="icon-save-contact2" d="M510.801-64c-280.581 0-510.801 230.22-510.801 513.199 0 280.581 230.22 510.801 510.801 510.801s510.801-230.22 510.801-510.801c2.398-282.979-227.822-513.199-510.801-513.199zM510.801 926.426c-263.794 0-477.227-213.433-477.227-477.227s213.433-477.227 477.227-477.227 477.227 213.433 477.227 477.227c2.398 261.396-213.433 477.227-477.227 477.227zM685.864 108.665h-318.951c-38.37 0-69.546 31.176-69.546 69.546v541.977c0 38.37 31.176 69.546 69.546 69.546h318.951c38.37 0 69.546-31.176 69.546-69.546v-541.977c0-38.37-31.176-69.546-69.546-69.546zM366.913 753.761c-19.185 0-33.574-16.787-33.574-33.574v-541.977c0-19.185 16.787-33.574 33.574-33.574h318.951c19.185 0 33.574 14.389 33.574 33.574v541.977c0 19.185-14.389 33.574-33.574 33.574h-318.951zM525.19 230.97c-16.787 0-31.176-14.389-31.176-31.176s14.389-31.176 31.176-31.176c16.787 0 31.176 14.389 31.176 31.176s-11.991 31.176-31.176 31.176v0zM683.466 257.349h-314.155c-9.593 0-16.787 7.194-16.787 16.787v386.098c0 9.593 7.194 16.787 16.787 16.787h314.155c9.593 0 16.787-7.194 16.787-16.787v-386.098c0-9.593-7.194-16.787-16.787-16.787zM386.098 290.923h280.581v352.525h-280.581v-352.525z" />
<glyph unicode="&#xe918;" glyph-name="icon-call2" d="M510.801-64c-280.581 0-510.801 230.22-510.801 513.199 0 280.581 230.22 510.801 510.801 510.801s510.801-230.22 510.801-510.801c2.398-282.979-227.822-513.199-510.801-513.199zM510.801 926.426c-263.794 0-477.227-213.433-477.227-477.227s213.433-477.227 477.227-477.227 477.227 213.433 477.227 477.227c2.398 261.396-213.433 477.227-477.227 477.227zM484.422 96.674c0-11.991-4.796-21.583-11.991-26.379-7.194-7.194-16.787-9.593-28.778-9.593-9.593 0-16.787 2.398-23.981 7.194s-11.991 9.593-14.389 16.787c-2.398 7.194-4.796 16.787-4.796 26.379v9.593c0 9.593 2.398 19.185 4.796 26.379 4.796 7.194 9.593 14.389 16.787 19.185s14.389 7.194 23.981 7.194c11.991 0 21.583-2.398 28.778-9.593s11.991-16.787 11.991-28.778h-19.185c0 7.194-2.398 14.389-7.194 16.787s-9.593 4.796-16.787 4.796c-7.194 0-14.389-2.398-19.185-9.593s-7.194-14.389-7.194-26.379v-9.593c0-11.991 2.398-21.583 7.194-26.379s9.593-9.593 19.185-9.593c7.194 0 11.991 2.398 16.787 4.796s7.194 9.593 7.194 16.787h16.787zM549.171 60.703c0 2.398-2.398 4.796-2.398 7.194-4.796-7.194-11.991-9.593-21.583-9.593-7.194 0-14.389 2.398-19.185 7.194s-7.194 9.593-7.194 16.787c0 9.593 2.398 14.389 9.593 19.185s16.787 7.194 26.379 7.194h11.991v4.796c0 4.796 0 7.194-2.398 9.593s-4.796 4.796-9.593 4.796c-4.796 0-7.194 0-9.593-2.398s-4.796-4.796-4.796-7.194h-19.185c0 4.796 2.398 9.593 4.796 11.991s7.194 7.194 11.991 9.593c4.796 2.398 9.593 2.398 16.787 2.398 9.593 0 16.787-2.398 21.583-7.194s9.593-11.991 9.593-19.185v-35.972c0-7.194 0-11.991 2.398-16.787v-2.398h-19.185zM529.986 75.091c4.796 0 7.194 0 9.593 2.398s4.796 4.796 7.194 7.194v14.389h-9.593c-7.194 0-11.991 0-14.389-2.398s-4.796-4.796-4.796-9.593c0-2.398 0-7.194 2.398-7.194s4.796-4.796 9.593-4.796zM601.93 60.703h-19.185v115.11h19.185v-115.11zM642.698 60.703h-19.185v115.11h19.185v-115.11zM750.614 439.607l-211.035 364.515c-11.991 19.185-35.972 23.981-55.157 14.389l-215.831-124.703c-19.185-11.991-26.379-35.972-14.389-55.157l211.035-364.515c11.991-19.185 35.972-26.379 55.157-14.389l215.831 124.703c19.185 9.593 26.379 35.972 14.389 55.157zM611.522 348.478c-11.991-7.194-26.379-2.398-33.574 9.593s-2.398 26.379 9.593 33.574c11.991 7.194 26.379 2.398 33.574-9.593 7.194-9.593 2.398-26.379-9.593-33.574zM465.237 360.468l-151.082 258.998 211.035 122.304 151.082-258.998-211.035-122.304z" />
<glyph unicode="&#xe919;" glyph-name="icon-edit" d="M510.801-64c-280.581 0-510.801 230.22-510.801 513.199 0 280.581 230.22 510.801 510.801 510.801 282.979 0 510.801-230.22 510.801-510.801 2.398-282.979-227.822-513.199-510.801-513.199zM510.801 926.426c-263.794 0-477.227-213.433-477.227-477.227s213.433-477.227 477.227-477.227 477.227 213.433 477.227 477.227c2.398 261.396-213.433 477.227-477.227 477.227zM258.998 183.007c-9.593 0-21.583 4.796-28.778 11.991-11.991 11.991-14.389 28.778-9.593 43.166l43.166 107.916c2.398 4.796 4.796 9.593 9.593 14.389l357.321 359.719c28.778 28.778 76.74 28.778 103.119 0l19.185-19.185c28.778-28.778 28.778-74.342 0-103.119l-359.719-359.719c-4.796-4.796-7.194-7.194-14.389-9.593l-107.916-43.166c-2.398 0-7.194-2.398-11.991-2.398zM683.466 705.799c-9.593 0-21.583-4.796-28.778-11.991l-357.321-359.719-43.166-110.314c0-2.398 0-4.796 2.398-7.194 0 0 2.398-2.398 4.796-2.398l110.314 43.166 359.719 359.719c14.389 14.389 14.389 40.768 0 55.157l-16.787 19.185c-11.991 9.593-21.583 14.389-31.176 14.389z" />
<glyph unicode="&#xe91a;" glyph-name="icon-setting" d="M585.143 149.433h-146.286v67.148c-11.991 4.796-26.379 9.593-38.37 16.787l-47.963-47.963-103.119 103.119 47.963 47.963c-7.194 11.991-11.991 23.981-16.787 38.37h-67.148v146.286h67.148c4.796 11.991 9.593 26.379 16.787 38.37l-47.963 47.963 103.119 103.119 47.963-47.963c11.991 7.194 23.981 11.991 38.37 16.787v67.148h146.286v-67.148c11.991-4.796 26.379-9.593 38.37-16.787l47.963 47.963 103.119-103.119-47.963-47.963c7.194-11.991 11.991-23.981 16.787-38.37h67.148v-146.286h-67.148c-4.796-11.991-9.593-26.379-16.787-38.37l47.963-47.963-103.119-103.119-47.963 47.963c-11.991-7.194-23.981-11.991-38.37-16.787v-67.148zM472.431 183.007h79.138v59.953l11.991 2.398c19.185 4.796 35.972 11.991 52.759 21.583l11.991 7.194 43.166-43.166 55.157 55.157-43.166 43.166 7.194 11.991c9.593 16.787 16.787 33.574 21.583 52.759l2.398 11.991h59.953v79.138h-59.953l-2.398 11.991c-4.796 19.185-11.991 35.972-21.583 52.759l-7.194 11.991 43.166 43.166-55.157 57.555-43.166-43.166-11.991 7.194c-16.787 9.593-33.574 16.787-52.759 21.583l-11.991 4.796v59.953h-79.138v-59.953l-11.991-2.398c-19.185-4.796-35.972-11.991-52.759-21.583l-11.991-7.194-43.166 43.166-55.157-55.157 43.166-43.166-7.194-11.991c-9.593-16.787-16.787-33.574-21.583-52.759l-2.398-11.991h-59.953v-81.536h59.953l2.398-11.991c4.796-19.185 11.991-35.972 21.583-52.759l7.194-11.991-43.166-43.166 55.157-55.157 43.166 43.166 11.991-7.194c16.787-9.593 33.574-16.787 52.759-21.583l11.991-2.398v-62.351zM510.801 346.080c-55.157 0-100.721 45.564-100.721 100.721s45.564 100.721 100.721 100.721 100.721-45.564 100.721-100.721c2.398-55.157-43.166-100.721-100.721-100.721zM510.801 516.347c-38.37 0-67.148-31.176-67.148-67.148s31.176-67.148 67.148-67.148c38.37 0 67.148 31.176 67.148 67.148s-28.778 67.148-67.148 67.148zM510.801-64c-280.581 0-510.801 230.22-510.801 513.199 0 280.581 230.22 510.801 510.801 510.801 282.979 0 510.801-230.22 510.801-510.801 2.398-282.979-227.822-513.199-510.801-513.199zM510.801 926.426c-263.794 0-477.227-213.433-477.227-477.227s213.433-477.227 477.227-477.227 477.227 213.433 477.227 477.227c2.398 261.396-213.433 477.227-477.227 477.227z" />
<glyph unicode="&#xe91b;" glyph-name="icon-education" horiz-adv-x="1860" d="M1104.419-64c-0.403-0.016-0.877-0.024-1.353-0.024-12.711 0-23.947 6.32-30.735 15.988l-316.394 471.91c-4.068 6.026-6.493 13.452-6.493 21.445 0 21.352 17.309 38.661 38.661 38.661 13.359 0 25.135-6.776 32.080-17.078l273.511-412.954 32.168 69.696c6.133 12.874 19.039 21.613 33.987 21.613 1.247 0 2.48-0.061 3.696-0.18l69.542 0.012-182.283 273.424c-4.068 6.026-6.493 13.452-6.493 21.445 0 21.352 17.309 38.661 38.661 38.661 13.359 0 25.135-6.776 32.080-17.078l219.899-332.536c4.222-5.987 6.749-13.434 6.749-21.471 0-20.727-16.802-37.529-37.529-37.529-0.488 0-0.974 0.009-1.457 0.028l-117.878-0.002-42.89-107.225c-5.906-12.282-17.971-20.758-32.081-21.442l-5.448-0.003zM755.937-64h-5.361c-14.196 0.687-26.261 9.163-32.070 21.22l-48.349 107.45h-112.586c-0.414-0.016-0.899-0.026-1.387-0.026-20.727 0-37.529 16.802-37.529 37.529 0 8.037 2.526 15.483 6.828 21.589l219.732 332.279c7.032 10.44 18.809 17.216 32.168 17.216 21.352 0 38.661-17.309 38.661-38.661 0-7.993-2.425-15.419-6.58-21.583l-182.195-273.286h75.058c1.062 0.107 2.295 0.168 3.542 0.168 14.948 0 27.854-8.739 33.889-21.386l26.904-69.923 134.031 198.366c7.032 10.44 18.809 17.216 32.168 17.216 21.352 0 38.661-17.309 38.661-38.661 0-7.993-2.425-15.419-6.58-21.583l-171.473-257.203c-6.878-7.431-16.683-12.068-27.571-12.068-3.544 0-6.973 0.491-10.222 1.409zM1704.88 407.791c-91.141 0-155.476 117.948-155.476 273.424s64.335 278.785 155.476 278.785 155.476-117.948 155.476-273.424-64.335-278.785-155.476-278.785zM1704.88 884.942c-32.168 0-80.419-80.419-80.419-198.366s48.251-198.366 80.419-198.366 80.419 80.419 80.419 198.366-48.251 198.366-80.419 198.366zM1704.88 407.791h-1549.403c-85.78 0-155.476 117.948-155.476 273.424s69.696 278.785 155.476 278.785h1549.403c20.727 0 37.529-16.802 37.529-37.529s-16.802-37.529-37.529-37.529h-1549.403c-32.168 0-80.419-80.419-80.419-198.366s48.251-203.728 80.419-203.728h1549.403c20.727 0 37.529-16.802 37.529-37.529s-16.802-37.529-37.529-37.529zM1109.78 407.791c-91.141 0-155.476 117.948-155.476 273.424s64.335 278.785 155.476 278.785c20.727 0 37.529-16.802 37.529-37.529s-16.802-37.529-37.529-37.529c-32.168 0-80.419-80.419-80.419-198.366s48.251-198.366 80.419-198.366c22.207 0 40.209-18.002 40.209-40.209s-18.002-40.209-40.209-40.209zM809.55 407.791c-91.141 0-155.476 117.948-155.476 273.424s69.696 278.785 155.476 278.785c20.727 0 37.529-16.802 37.529-37.529s-16.802-37.529-37.529-37.529c-32.168 0-80.419-80.419-80.419-198.366s48.251-198.366 80.419-198.366c22.207 0 40.209-18.002 40.209-40.209s-18.002-40.209-40.209-40.209z" />
<glyph unicode="&#xe91c;" glyph-name="icon-zoomin" d="M570.754 389.246c7.194 7.194 16.787 7.194 23.981 0l7.194-7.194c71.944 83.934 67.148 211.035-11.991 290.173 0 0 0 0 0 0-40.768 40.768-93.527 62.351-151.082 62.351s-110.314-21.583-151.082-62.351c-83.934-83.934-83.934-220.628 0-304.562 40.768-40.768 93.527-62.351 151.082-62.351 52.759 0 100.721 19.185 139.091 52.759l-7.194 7.194c-7.194 7.194-7.194 16.787 0 23.981zM311.756 391.644c-69.546 69.546-69.546 184.656 0 256.6 33.574 33.574 79.138 52.759 127.101 52.759s93.527-19.185 127.101-52.759v0c69.546-69.546 69.546-184.656 0-256.6-33.574-33.574-79.138-52.759-127.101-52.759s-93.527 19.185-127.101 52.759zM573.152 509.152c0 9.593-7.194 11.991-16.787 11.991h-103.119v110.314c0 9.593-2.398 16.787-11.991 16.787s-11.991-7.194-11.991-16.787v-110.314h-100.721c-9.593 0-16.787-2.398-16.787-11.991s7.194-11.991 16.787-11.991h100.721v-95.925c0-9.593 2.398-16.787 11.991-16.787s11.991 7.194 11.991 16.787v95.925h103.119c9.593 0 16.787 2.398 16.787 11.991zM582.745 403.635c-4.796-4.796-9.593-9.593-14.389-14.389s-9.593-7.194-11.991-11.991l211.035-208.637c4.796-4.796 9.593-4.796 14.389-4.796s9.593 2.398 14.389 4.796c7.194 7.194 7.194 19.185 0 26.379l-213.433 208.637zM510.801 960c-280.581 0-510.801-230.22-510.801-510.801 0-282.979 230.22-510.801 510.801-510.801s510.801 230.22 510.801 510.801c2.398 280.581-227.822 510.801-510.801 510.801zM510.801-30.426c-263.794 0-477.227 213.433-477.227 477.227s213.433 477.227 477.227 477.227 477.227-213.433 477.227-477.227c2.398-261.396-213.433-477.227-477.227-477.227z" />
<glyph unicode="&#xe91d;" glyph-name="icon-zoomout" d="M573.152 509.152c0 9.593-7.194 11.991-16.787 11.991h-227.822c-9.593 0-16.787-2.398-16.787-11.991s7.194-11.991 16.787-11.991h227.822c9.593 0 16.787 2.398 16.787 11.991zM585.143 406.033c-4.796-4.796-9.593-9.593-11.991-14.389-4.796-4.796-9.593-7.194-11.991-11.991l208.637-211.035c4.796-4.796 9.593-4.796 14.389-4.796s9.593 2.398 11.991 4.796c7.194 7.194 7.194 19.185 0 26.379l-211.035 211.035zM510.801 960c-280.581 0-510.801-230.22-510.801-510.801 0-282.979 230.22-510.801 510.801-510.801 282.979 0 510.801 230.22 510.801 510.801 2.398 280.581-227.822 510.801-510.801 510.801zM510.801-30.426c-263.794 0-477.227 213.433-477.227 477.227s213.433 477.227 477.227 477.227 477.227-213.433 477.227-477.227c2.398-261.396-213.433-477.227-477.227-477.227zM570.754 389.246c7.194 7.194 16.787 7.194 23.981 0l7.194-7.194c71.944 83.934 67.148 211.035-11.991 290.173 0 0 0 0 0 0-40.768 40.768-93.527 62.351-151.082 62.351s-110.314-21.583-151.082-62.351c-83.934-83.934-83.934-220.628 0-304.562 40.768-40.768 93.527-62.351 151.082-62.351 52.759 0 100.721 19.185 139.091 52.759l-7.194 7.194c-7.194 7.194-7.194 16.787 0 23.981zM311.756 391.644c-69.546 69.546-69.546 184.656 0 256.6 33.574 33.574 79.138 52.759 127.101 52.759s93.527-19.185 127.101-52.759c69.546-69.546 69.546-184.656 0-256.6-33.574-33.574-79.138-52.759-127.101-52.759s-93.527 19.185-127.101 52.759z" />
<glyph unicode="&#xe91e;" glyph-name="icon-mobile" d="M510.801-64c-280.581 0-510.801 230.22-510.801 513.199 0 280.581 230.22 510.801 510.801 510.801 282.979 0 510.801-230.22 510.801-510.801 2.398-282.979-227.822-513.199-510.801-513.199zM510.801 926.426c-263.794 0-477.227-213.433-477.227-477.227s213.433-477.227 477.227-477.227 477.227 213.433 477.227 477.227c2.398 261.396-213.433 477.227-477.227 477.227zM589.939 67.897c-9.593 0-16.787 2.398-26.379 4.796l-290.173 93.527c-43.166 14.389-67.148 59.953-52.759 103.119l160.674 491.616c7.194 21.583 21.583 38.37 40.768 47.963s43.166 11.991 62.351 4.796l290.173-93.527c43.166-14.389 67.148-59.953 52.759-103.119l-160.674-491.616c-9.593-35.972-43.166-57.555-76.74-57.555zM458.042 784.937c-7.194 0-14.389-2.398-21.583-4.796-11.991-4.796-19.185-16.787-23.981-28.778l-160.674-491.616c-7.194-26.379 4.796-52.759 31.176-59.953l290.173-93.527c26.379-7.194 52.759 4.796 59.953 31.176l160.674 491.616c4.796 11.991 2.398 26.379-2.398 35.972s-16.787 19.185-28.778 23.981l-287.775 93.527c-4.796 2.398-11.991 2.398-16.787 2.398zM450.848 171.016c-4.796 0-9.593 0-14.389 2.398v0c-23.981 7.194-38.37 35.972-31.176 59.953 4.796 14.389 16.787 26.379 31.176 31.176l-115.11 38.37c-16.787 4.796-26.379 23.981-21.583 40.768l112.712 347.728c4.796 16.787 23.981 26.379 40.768 21.583l285.377-93.527c9.593-2.398 14.389-9.593 19.185-16.787s4.796-16.787 2.398-26.379l-112.712-345.33c-2.398-9.593-9.593-14.389-16.787-19.185s-16.787-4.796-26.379-2.398l-115.11 38.37c9.593-11.991 11.991-28.778 7.194-43.166-4.796-11.991-11.991-21.583-23.981-28.778-7.194-4.796-14.389-4.796-21.583-4.796zM450.848 230.97c-4.796 0-11.991-4.796-11.991-9.593-2.398-7.194 2.398-14.389 9.593-16.787v0c2.398 0 7.194 0 9.593 0s4.796 4.796 7.194 7.194c2.398 7.194-2.398 14.389-9.593 16.787-2.398 2.398-2.398 2.398-4.796 2.398zM616.319 240.562v0 0zM443.653 681.817l-112.712-347.728 282.979-93.527 112.712 347.728-282.979 93.527zM460.44 542.726c-16.787 4.796-33.574-4.796-40.768-19.185-4.796-16.787 4.796-33.574 19.185-40.768 16.787-4.796 33.574 4.796 40.768 19.185 7.194 19.185-2.398 35.972-19.185 40.768zM546.773 513.948c-16.787 4.796-33.574-4.796-40.768-19.185-4.796-16.787 4.796-33.574 19.185-40.768 16.787-4.796 33.574 4.796 40.768 19.185 7.194 19.185-2.398 35.972-19.185 40.768zM633.105 487.569c-16.787 4.796-33.574-4.796-40.768-19.185-4.796-16.787 4.796-33.574 19.185-40.768 16.787-4.796 33.574 4.796 40.768 19.185 7.194 16.787-2.398 33.574-19.185 40.768z" />
<glyph unicode="&#xe91f;" glyph-name="icon-edit2" d="M83.934-64c-20.984 0-46.164 8.393-58.754 25.18-25.18 25.18-29.377 58.754-16.787 92.328l75.541 193.049c4.197 12.59 12.59 20.984 16.787 29.377l642.098 642.098c54.557 54.557 151.082 54.557 205.639 0l33.574-33.574c58.754-58.754 54.557-146.885 0-205.639l-642.098-642.098c-8.393-8.393-16.787-16.787-29.377-20.984l-193.049-75.541c-12.59 0-20.984-4.197-33.574-4.197zM847.738 871.869c-16.787 0-29.377-4.197-37.77-16.787l-646.295-642.098-71.344-180.459 184.656 71.344 642.098 642.098c20.984 20.984 20.984 58.754 0 79.738l-33.574 33.574c-12.59 8.393-25.18 12.59-37.77 12.59z" />
<glyph unicode="&#xe920;" glyph-name="icon-setting2" d="M608-64h-188c-24 0-44 20-44 44v76c-16 4-32 12-48 20l-52-52c-16-16-44-16-60 0l-132 132c-8 8-12 20-12 32s4 24 12 32l52 52c-8 16-12 32-20 48h-72c-24 0-44 20-44 44v188c0 24 20 44 44 44h76c4 4 8 20 16 36l-52 52c-8 8-12 20-12 28s4 24 12 32l132 132c16 16 44 16 60 0l52-52c16 8 32 12 48 20v72c0 24 20 44 44 44h188c24 0 44-20 44-44v-76c16-4 32-12 48-20l52 52c16 16 44 16 60 0l132-132c16-16 16-44 0-60l-52-52c8-16 12-32 20-48h76c24 0 44-20 44-44v-188c0-24-20-44-44-44h-76c-4-16-12-32-20-48l52-52c16-16 16-44 0-60l-132-132c-16-16-44-16-60 0l-52 52c-16-8-32-12-48-20v-76c-4-16-20-32-44-32zM460 20h104v64c0 20 12 36 32 40 32 8 60 20 84 36 16 8 36 8 52-8l44-44 72 72-44 44c-12 16-16 36-4 56 16 28 28 56 36 84 4 20 20 32 40 32h64v104h-64c-20 0-36 12-40 32-8 28-20 56-36 84-8 16-8 36 8 52l44 44-72 72-44-44c-16-12-36-16-56-4-28 16-56 28-84 36-20 4-32 20-32 40v64h-104v-64c0-20-12-36-32-40-28-8-56-20-84-36-16-12-40-8-52 4l-44 48-76-76 44-44c12-12 16-36 8-52-16-28-28-56-32-84-4-20-20-32-40-32h-68v-104h64c20 0 36-12 40-32 8-32 20-60 36-84 8-16 8-36-8-52l-44-44 72-72 44 44c12 12 36 16 52 8 28-16 56-28 84-36 20-4 32-20 32-40v-68zM512 264c-100 0-184 84-184 184s84 184 184 184 184-84 184-184c0-100-84-184-184-184zM512 544c-56 0-100-44-100-100s44-100 100-100 100 44 100 100-44 100-100 100z" />
<glyph unicode="&#xe921;" glyph-name="icon-magnifier" d="M607.392 352.608c15.574 15.574 42.829 15.574 58.403 0l23.361-23.361c120.7 151.848 112.913 373.779-27.255 513.947-77.871 77.871-175.209 116.806-276.441 116.806s-198.57-38.935-272.548-112.913c-151.848-151.848-151.848-397.141 0-545.095 73.977-73.977 171.316-112.913 272.548-112.913 89.551 0 175.209 31.148 241.399 85.658l-23.361 23.361c-11.681 15.574-11.681 38.935 3.894 54.51zM171.316 360.395c-116.806 116.806-116.806 311.483 0 428.289 58.403 58.403 132.38 89.551 214.144 89.551s155.741-31.148 214.144-89.551c116.806-116.806 116.806-311.483 0-428.289-58.403-58.403-132.38-89.551-214.144-89.551s-155.741 31.148-214.144 89.551zM1008.426 17.764l-369.886 373.779c-11.681-11.681-19.468-23.361-31.148-35.042s-23.361-19.468-35.042-31.148l369.886-369.886c7.787-7.787 23.361-15.574 35.042-15.574s23.361 3.894 35.042 15.574c15.574 15.574 15.574 42.829-3.894 62.297z" />
<glyph unicode="&#xe922;" glyph-name="icon-zoomin2" d="M1008.426-48.426c-7.787-7.787-23.361-15.574-35.042-15.574s-23.361 3.894-35.042 15.574l-373.779 373.779c11.681 7.787 23.361 19.468 35.042 31.148s23.361 23.361 31.148 38.935l373.779-373.779c23.361-23.361 23.361-50.616 3.894-70.084zM428.289 741.962h-77.871v-155.741h-155.741v-77.871h155.741v-155.741h77.871v155.741h155.741v77.871h-155.741v155.741zM607.392 294.205l23.361-23.361c-70.084-54.51-151.848-85.658-241.399-85.658-101.232 0-198.57 38.935-272.548 112.913-155.741 151.848-155.741 397.141-3.894 548.989 73.977 73.977 171.316 112.913 272.548 112.913s198.57-38.935 272.548-112.913c140.167-140.167 147.954-362.099 27.255-513.947l-23.361 23.361c-15.574 15.574-42.829 15.574-58.403 0-11.681-19.468-11.681-42.829 3.894-62.297zM385.46 270.844c81.764 0 155.741 31.148 214.144 89.551 116.806 116.806 116.806 311.483 0 428.289-58.403 58.403-132.38 89.551-214.144 89.551s-155.741-31.148-214.144-89.551c-116.806-116.806-116.806-311.483 0-428.289 58.403-58.403 132.38-89.551 214.144-89.551z" />
<glyph unicode="&#xe923;" glyph-name="icon-share3" d="M986.491 528.645c-22.505 0-41.26 18.755-41.26 41.26v311.326h-311.326c-22.505 0-41.26 18.755-41.26 41.26s18.755 37.509 41.26 37.509h352.586c22.505 0 41.26-18.755 41.26-41.26v-352.586c-3.751-18.755-18.755-37.509-41.26-37.509zM483.868 359.853l461.363 465.114v56.264h-56.264l-461.363-465.114c-15.004-15.004-15.004-41.26 0-56.264 7.502-7.502 18.755-11.253 30.007-11.253s18.755 3.751 26.256 11.253zM1024-26.491v367.59c0 22.505-18.755 41.26-41.26 41.26s-41.26-18.755-41.26-41.26v-326.33h-862.711v866.462h330.081c22.505 0 41.26 18.755 41.26 41.26s-18.755 37.509-41.26 37.509h-367.59c-22.505 0-41.26-18.755-41.26-41.26v-945.231c0-22.505 18.755-41.26 41.26-41.26h945.231c22.505 3.751 37.509 18.755 37.509 41.26z" />
<glyph unicode="&#xe924;" glyph-name="icon-add-link" horiz-adv-x="1404" d="M861.245-64h-793.43c-44.079 0-67.815 33.907-67.815 67.815v115.285c0 44.079 20.344 74.596 61.033 91.55 44.079 20.344 159.364 61.033 237.351 84.768 0 3.391 0 6.781 0 10.172 0 23.735-3.391 40.689-6.781 54.252-10.172 20.344-20.344 54.252-27.126 84.768-13.563 16.954-27.126 44.079-37.298 94.94-10.172 44.079-6.781 64.424 3.391 88.159 0 10.172 0 54.252-6.781 94.94-10.172 33.907 0 101.722 40.689 152.583 27.126 33.907 81.377 77.987 172.927 84.768h47.47c94.94-6.781 149.192-47.47 176.318-84.768 40.689-50.861 54.252-118.675 44.079-155.974-6.781-40.689-10.172-88.159-6.781-94.94 10.172-20.344 10.172-44.079 3.391-88.159-10.172-47.47-23.735-77.987-37.298-94.94-3.391-30.517-16.954-64.424-27.126-84.768-6.781-16.954-16.954-33.907-16.954-50.861 0-3.391 0-6.781 0-10.172 77.987-23.735 189.881-61.033 237.351-81.377v0c47.47-20.344 67.815-61.033 67.815-94.94v-115.285c3.391-33.907-20.344-67.815-64.424-67.815zM484.874 912.53h-44.079c-74.596-3.391-115.285-37.298-135.629-64.424-33.907-44.079-40.689-94.94-33.907-118.675 3.391-40.689 6.781-98.331 3.391-115.285 0-3.391-3.391-6.781-3.391-10.172-3.391-10.172-6.781-20.344 0-61.033 10.172-47.47 23.735-67.815 30.517-77.987l3.391-6.781v-6.781c3.391-27.126 13.563-61.033 23.735-77.987s13.563-40.689 13.563-74.596c0-27.126 0-44.079-23.735-50.861-74.596-23.735-196.662-64.424-244.132-84.768-20.344-10.172-30.517-23.735-30.517-47.47v-115.285c0-6.781 3.391-20.344 20.344-20.344h790.040c16.954 0 20.344 13.563 20.344 20.344v115.285c0 16.954-13.563 37.298-37.298 50.861-50.861 20.344-169.536 61.033-244.132 84.768-23.735 6.781-23.735 27.126-23.735 50.861 0 27.126 10.172 50.861 20.344 71.205 6.781 16.954 20.344 50.861 23.735 77.987v6.781l3.391 6.781c6.781 10.172 20.344 30.517 30.517 77.987 6.781 40.689 3.391 50.861 0 61.033 0 3.391-3.391 3.391-3.391 6.781-3.391 20.344 0 77.987 6.781 115.285 3.391 23.735-3.391 74.596-33.907 118.675-13.563 27.126-57.642 61.033-132.238 67.815zM1190.146 715.868h-47.47v-478.093h47.47v478.093zM1403.762 502.252h-474.702v-47.47h478.093v47.47z" />
<glyph unicode="&#xe925;" glyph-name="icon-linked" horiz-adv-x="1472" d="M861.245-64h-793.43c-44.079 0-67.815 33.907-67.815 67.815v115.285c0 44.079 20.344 74.596 61.033 91.55 44.079 20.344 159.364 61.033 237.351 84.768 0 3.391 0 6.781 0 10.172 0 23.735-3.391 40.689-6.781 54.252-10.172 20.344-20.344 54.252-27.126 84.768-13.563 16.954-27.126 44.079-37.298 94.94-10.172 44.079-6.781 64.424 3.391 88.159 0 10.172 0 54.252-6.781 94.94-10.172 33.907 0 101.722 40.689 152.583 27.126 33.907 81.377 77.987 172.927 84.768h47.47c94.94-6.781 149.192-47.47 176.318-84.768 40.689-50.861 54.252-118.675 44.079-155.974-6.781-40.689-10.172-88.159-6.781-94.94 10.172-20.344 10.172-44.079 3.391-88.159-10.172-47.47-23.735-77.987-37.298-94.94-3.391-30.517-16.954-64.424-27.126-84.768-6.781-16.954-16.954-33.907-16.954-50.861 0-3.391 0-6.781 0-10.172 77.987-23.735 189.881-61.033 237.351-81.377v0c47.47-20.344 67.815-61.033 67.815-94.94v-115.285c3.391-33.907-20.344-67.815-64.424-67.815zM484.874 912.53h-44.079c-74.596-3.391-115.285-37.298-135.629-64.424-33.907-44.079-40.689-94.94-33.907-118.675 3.391-40.689 6.781-98.331 3.391-115.285 0-3.391-3.391-6.781-3.391-10.172-3.391-10.172-6.781-20.344 0-61.033 10.172-47.47 23.735-67.815 30.517-77.987l3.391-6.781v-6.781c3.391-27.126 13.563-61.033 23.735-77.987s13.563-40.689 13.563-74.596c0-27.126 0-44.079-23.735-50.861-77.987-23.735-196.662-64.424-244.132-84.768-20.344-10.172-30.517-23.735-30.517-47.47v-115.285c0-6.781 3.391-20.344 20.344-20.344h790.040c16.954 0 20.344 13.563 20.344 20.344v115.285c0 16.954-13.563 37.298-37.298 50.861-50.861 20.344-169.536 61.033-244.132 84.768-23.735 6.781-23.735 27.126-23.735 50.861 0 27.126 10.172 50.861 20.344 71.205 6.781 16.954 20.344 50.861 23.735 77.987v6.781l3.391 6.781c6.781 10.172 20.344 30.517 30.517 77.987 6.781 40.689 3.391 50.861 0 61.033 0 3.391-3.391 3.391-3.391 6.781-3.391 16.954 0 77.987 6.781 115.285 3.391 23.735-3.391 74.596-33.907 118.675-13.563 27.126-57.642 61.033-132.238 67.815zM1078.252 261.51l386.543 386.543c10.172 10.172 10.172 23.735 0 33.907s-23.735 10.172-33.907 0l-386.543-386.543c-10.172-10.172-10.172-23.735 0-33.907 3.391-3.391 10.172-6.781 16.954-6.781s13.563 3.391 16.954 6.781zM1078.252 261.51c10.172 10.172 10.172 23.735 0 33.907l-115.285 108.503c-10.172 10.172-23.735 10.172-33.907 0s-10.172-23.735 0-33.907l115.285-108.503c3.391-3.391 10.172-6.781 16.954-6.781 3.391 0 10.172 3.391 16.954 6.781z" />
<glyph unicode="&#xe926;" glyph-name="icon-unlink" horiz-adv-x="1353" d="M861.245-64h-793.43c-44.079 0-67.815 33.907-67.815 67.815v115.285c0 44.079 20.344 74.596 61.033 91.55 44.079 20.344 159.364 61.033 237.351 84.768 0 3.391 0 6.781 0 10.172 0 23.735-3.391 40.689-6.781 54.252-10.172 20.344-20.344 54.252-27.126 84.768-13.563 16.954-27.126 44.079-37.298 94.94-10.172 44.079-6.781 64.424 3.391 88.159 0 10.172 0 54.252-6.781 94.94-10.172 33.907 0 101.722 40.689 152.583 27.126 33.907 81.377 77.987 172.927 84.768h47.47c94.94-6.781 149.192-47.47 176.318-84.768 40.689-50.861 54.252-118.675 44.079-155.974-6.781-40.689-10.172-88.159-6.781-94.94 10.172-20.344 10.172-44.079 3.391-88.159-10.172-47.47-23.735-77.987-37.298-94.94-3.391-30.517-16.954-64.424-27.126-84.768-6.781-16.954-16.954-33.907-16.954-50.861 0-3.391 0-6.781 0-10.172 77.987-23.735 189.881-61.033 237.351-81.377v0c47.47-20.344 67.815-61.033 67.815-94.94v-115.285c3.391-33.907-20.344-67.815-64.424-67.815zM484.874 912.53h-44.079c-74.596-3.391-115.285-37.298-135.629-64.424-33.907-44.079-40.689-94.94-33.907-118.675 3.391-40.689 6.781-98.331 3.391-115.285 0-3.391-3.391-6.781-3.391-10.172-3.391-10.172-6.781-20.344 0-61.033 10.172-47.47 23.735-67.815 30.517-77.987l3.391-6.781v-6.781c3.391-27.126 13.563-61.033 23.735-77.987s13.563-40.689 13.563-74.596c0-27.126 0-44.079-23.735-50.861-74.596-23.735-196.662-64.424-244.132-84.768-20.344-10.172-30.517-23.735-30.517-47.47v-115.285c0-6.781 3.391-20.344 20.344-20.344h790.040c16.954 0 20.344 13.563 20.344 20.344v115.285c0 16.954-13.563 37.298-37.298 50.861-50.861 20.344-169.536 61.033-244.132 84.768-23.735 6.781-23.735 27.126-23.735 50.861 0 27.126 10.172 50.861 20.344 71.205 6.781 16.954 20.344 50.861 23.735 77.987v6.781l3.391 6.781c6.781 10.172 20.344 30.517 30.517 77.987 6.781 40.689 3.391 50.861 0 61.033 0 3.391-3.391 3.391-3.391 6.781-3.391 16.954 0 77.987 6.781 115.285 3.391 23.735-3.391 74.596-33.907 118.675-13.563 27.126-57.642 61.033-132.238 67.815zM1352.901 627.709l-33.907 33.907-339.073-339.073 33.907-33.907 339.073 339.073zM1352.901 325.934l-339.073 339.073-33.907-33.907 339.073-339.073 33.907 33.907z" />
<glyph unicode="&#xe927;" glyph-name="icon-delete-block" d="M737.995 145.397h-464.758c-28.090 0-43.411 22.983-43.411 43.411v68.948c0 25.536 12.768 45.965 38.304 56.18s91.93 35.751 137.895 48.519c0 0 0 2.554 0 2.554 0 12.768-2.554 22.983-5.107 30.643-5.107 10.214-12.768 30.643-15.322 51.072-10.214 12.768-17.875 33.197-22.983 56.18-5.107 28.090-2.554 40.858 2.554 53.626 0 5.107 0 30.643-5.107 53.626s2.554 63.84 28.090 94.484c17.875 20.429 48.519 48.519 104.698 51.072h28.090c58.733-2.554 89.377-30.643 107.252-51.072 25.536-30.643 30.643-71.501 28.090-94.484-5.107-22.983-5.107-51.072-5.107-53.626 5.107-12.768 7.661-25.536 2.554-53.626-5.107-22.983-12.768-43.411-22.983-56.18-2.554-20.429-10.214-38.304-15.322-51.072-5.107-10.214-7.661-20.429-7.661-28.090 0 0 0-2.554 0-2.554 45.965-12.768 109.805-35.751 137.895-48.519v0c25.536-10.214 43.411-33.197 43.411-58.733v-68.948c-5.107-22.983-20.429-43.411-51.072-43.411zM518.384 717.406h-25.536c-40.858-2.554-63.84-20.429-76.608-38.304-17.875-22.983-22.983-53.626-20.429-66.394 5.107-22.983 7.661-58.733 5.107-68.948 0-2.554 0-5.107-2.554-5.107-2.554-5.107-5.107-10.214 0-33.197 5.107-25.536 12.768-38.304 17.875-43.411l2.554-5.107v-5.107c2.554-15.322 7.661-33.197 12.768-43.411s7.661-25.536 7.661-45.965c0-15.322 0-28.090-17.875-33.197-45.965-12.768-114.913-38.304-143.002-51.072-10.214-5.107-15.322-12.768-15.322-22.983v-68.948c0-7.661 5.107-7.661 7.661-7.661h464.758c2.554 0 7.661 0 7.661 7.661v68.948c0 7.661-5.107 20.429-20.429 25.536-28.090 12.768-99.591 35.751-143.002 48.519-17.875 5.107-17.875 20.429-17.875 33.197 0 15.322 5.107 30.643 12.768 43.411 5.107 10.214 10.214 28.090 12.768 43.411v5.107l2.554 5.107c5.107 5.107 12.768 17.875 17.875 43.411 5.107 22.983 2.554 28.090 0 33.197 0 2.554 0 2.554-2.554 5.107-2.554 12.768 0 48.519 5.107 68.948 2.554 12.768 0 43.411-20.429 66.394-5.107 20.429-28.090 38.304-71.501 40.858zM510.723-64c-283.451 0-510.723 229.825-510.723 510.723 0 283.451 229.825 513.277 510.723 513.277s510.723-229.825 510.723-510.723c2.554-283.451-227.272-513.277-510.723-513.277zM510.723 924.249c-260.469 0-474.973-214.504-474.973-474.973 0-263.022 214.504-474.973 474.973-474.973s477.526 211.95 477.526 474.973c0 260.469-214.504 474.973-477.526 474.973zM880.998 799.122l-25.536 22.983-22.983-22.983-666.494-699.691 25.536-25.536 666.494 699.691z" />
<glyph unicode="&#xe928;" glyph-name="icon-call-wifi" horiz-adv-x="1447" d="M868.848 672.97l46.545 224.97h54.303l-69.818-302.545h-50.424l-58.182 221.091-58.182-221.091h-50.424l-69.818 302.545h50.424l46.545-224.97 58.182 224.97h46.545l54.303-224.97zM1062.788 599.273h-54.303v298.667h50.424v-298.667zM1299.394 723.394h-120.242v-128h-54.303v302.545h193.939v-42.667h-139.636v-89.212h120.242v-42.667zM1411.879 599.273h-50.424v298.667h50.424v-298.667zM771.879-64c-15.515 0-27.152 3.879-42.667 7.758-54.303 19.394-259.879 104.727-442.182 283.152-162.909 155.152-248.242 345.212-283.152 442.182-11.636 46.545 0 93.091 31.030 124.121l124.121 128c31.030 31.030 77.576 31.030 104.727 0l166.788-162.909c0 0 0 0 0 0 31.030-31.030 31.030-77.576 0-104.727l-85.333-85.333c15.515-34.909 58.182-112.485 120.242-170.667 62.061-62.061 135.758-104.727 170.667-120.242l85.333 85.333c27.152 27.152 77.576 27.152 104.727 0l151.273-159.030c15.515-15.515 23.273-31.030 23.273-54.303 0-19.394-7.758-38.788-23.273-54.303l-124.121-124.121c-19.394-19.394-50.424-34.909-81.455-34.909zM213.333 886.303c-7.758 0-11.636 0-15.515-3.879l-124.121-124.121c-15.515-19.394-23.273-46.545-15.515-69.818 34.909-93.091 116.364-271.515 267.636-422.788 174.545-170.667 368.485-248.242 422.788-271.515 23.273-11.636 46.545-3.879 65.939 15.515l124.121 124.121c7.758 7.758 7.758 19.394 0 27.152l-151.273 159.030c-7.758 7.758-19.394 7.758-27.152 0l-100.848-96.97c-7.758-7.758-19.394-11.636-31.030-3.879-3.879 3.879-116.364 50.424-205.576 139.636s-135.758 197.818-139.636 205.576c0 7.758 0 19.394 7.758 27.152l100.848 100.848c7.758 7.758 7.758 19.394 0 27.152l-166.788 162.909c-3.879 3.879-7.758 3.879-11.636 3.879z" />
<glyph unicode="&#xe929;" glyph-name="icon-call3" horiz-adv-x="1020" d="M786.78-64c-15.815 0-27.676 3.954-43.49 7.907-55.351 19.768-264.896 106.749-450.718 288.618-162.1 158.147-249.081 351.876-288.618 450.718-11.861 47.444 0 94.888 31.629 126.517l126.517 126.517c31.629 31.629 79.073 31.629 106.749 0l170.008-166.054c0 0 0 0 0 0 31.629-31.629 31.629-79.073 0-106.749l-86.981-86.981c15.815-31.629 59.305-110.703 122.564-173.961s138.378-106.749 173.961-122.564l86.981 86.981c31.629 31.629 79.073 31.629 106.749 0l154.193-162.1c15.815-15.815 23.722-31.629 23.722-55.351 0-19.768-7.907-39.537-23.722-55.351l-126.517-126.517c-19.768-15.815-51.398-31.629-83.027-31.629zM217.452 904.649c-3.954 0-7.907-3.954-15.815-7.907l-126.517-126.517c-15.815-15.815-23.722-43.49-15.815-67.212 35.583-94.888 118.61-276.757 272.803-430.95 177.915-173.961 375.598-253.035 430.95-276.757 23.722-11.861 51.398-3.954 67.212 15.815l126.517 126.517c7.907 7.907 7.907 19.768 0 27.676l-154.193 162.1c-7.907 7.907-19.768 7.907-27.676 0l-102.795-98.842c-7.907-7.907-19.768-11.861-31.629-3.954-3.954 3.954-118.61 51.398-209.544 142.332-86.981 86.981-138.378 197.683-138.378 205.591-3.954 7.907-3.954 19.768 3.954 31.629l102.795 102.795c7.907 7.907 7.907 19.768 0 27.676l-170.008 162.1c-3.954 3.954-7.907 7.907-11.861 7.907z" />
<glyph unicode="&#xe92a;" glyph-name="icon-message" horiz-adv-x="1197" d="M154.509-64l-12.118 233.278c-93.917 87.858-142.391 193.893-142.391 309.018 0 266.604 269.633 481.704 596.828 481.704s596.828-215.101 596.828-481.704-269.633-481.704-596.828-481.704c-60.592 0-124.213 9.089-181.775 24.237l-260.544-84.828zM596.828 917.586c-305.988 0-554.414-196.923-554.414-439.29 0-103.006 45.444-199.953 133.302-281.751l6.059-6.059 12.118-196.923 221.16 69.68 6.059-3.030c57.562-15.148 115.124-24.237 175.716-24.237 305.988 0 554.414 196.923 554.414 439.29s-248.426 442.32-554.414 442.32zM727.101 235.929h-418.083v42.414h418.083v-42.414zM893.728 423.763h-584.71v42.414h584.71v-42.414zM893.728 611.598h-584.71v42.414h584.71v-42.414z" />
<glyph unicode="&#xe92b;" glyph-name="icon-more" horiz-adv-x="1528" d="M757.76-64c-122.88 0-225.28 102.4-225.28 225.28s102.4 225.28 225.28 225.28 225.28-102.4 225.28-225.28-102.4-225.28-225.28-225.28zM757.76 329.216c-94.208 0-167.936-73.728-167.936-167.936s73.728-167.936 167.936-167.936 167.936 73.728 167.936 167.936-73.728 167.936-167.936 167.936zM1302.528-64c-122.88 0-225.28 102.4-225.28 225.28s102.4 225.28 225.28 225.28 225.28-102.4 225.28-225.28-102.4-225.28-225.28-225.28zM1302.528 329.216c-94.208 0-167.936-73.728-167.936-167.936s73.728-167.936 167.936-167.936c94.208 0 167.936 73.728 167.936 167.936s-77.824 167.936-167.936 167.936zM196.608 357.888c-110.592 0-196.608-90.112-196.608-196.608s90.112-196.608 196.608-196.608 196.608 90.112 196.608 196.608-86.016 196.608-196.608 196.608zM757.76 960c-110.592 0-196.608-90.112-196.608-196.608s90.112-196.608 196.608-196.608 196.608 90.112 196.608 196.608-90.112 196.608-196.608 196.608zM1302.528 960c-110.592 0-196.608-90.112-196.608-196.608s90.112-196.608 196.608-196.608 196.608 90.112 196.608 196.608-90.112 196.608-196.608 196.608zM196.608 960c-106.496 0-196.608-90.112-196.608-196.608s90.112-196.608 196.608-196.608 196.608 90.112 196.608 196.608-86.016 196.608-196.608 196.608z" />
<glyph unicode="&#xe92c;" glyph-name="icon-group" horiz-adv-x="1312" d="M859.178-64h-789.041c-45.589 0-70.137 35.068-70.137 70.137v115.726c0 42.082 21.041 73.644 59.616 91.178 45.589 21.041 157.808 59.616 234.959 84.164 0 3.507 0 3.507 0 7.014 0 24.548-3.507 42.082-7.014 52.603-10.521 17.534-21.041 52.603-24.548 84.164-14.027 17.534-28.055 45.589-38.575 94.685-10.521 45.589-7.014 66.63 3.507 87.671 0 7.014 0 56.11-7.014 94.685s3.507 105.205 45.589 157.808c28.055 35.068 80.658 77.151 171.836 84.164h49.096c94.685-7.014 147.288-49.096 175.342-84.164 42.082-52.603 52.603-119.233 45.589-157.808s-10.521-87.671-7.014-94.685c7.014-21.041 10.521-42.082 3.507-87.671-10.521-49.096-24.548-77.151-38.575-94.685-7.014-31.562-17.534-66.63-24.548-84.164s-14.027-35.068-14.027-52.603c0-3.507 0-7.014 0-7.014 35.068-10.521 77.151-24.548 119.233-38.575 31.562 14.027 80.658 28.055 115.726 38.575 0 14.027 0 28.055-3.507 31.562-7.014 14.027-14.027 35.068-17.534 59.616-10.521 17.534-21.041 38.575-24.548 66.63-7.014 31.562-3.507 49.096 3.507 66.63 0 3.507 0 35.068-7.014 63.123-3.507 28.055 3.507 77.151 31.562 115.726 21.041 24.548 59.616 56.11 126.247 59.616h35.068c70.137-3.507 108.712-35.068 126.247-59.616 28.055-38.575 38.575-87.671 31.562-115.726-3.507-28.055-7.014-56.11-7.014-63.123 7.014-14.027 7.014-31.562 3.507-63.123-7.014-28.055-14.027-49.096-24.548-66.63-3.507-24.548-10.521-45.589-17.534-59.616-3.507-10.521-10.521-21.041-10.521-31.562 52.603-17.534 126.247-42.082 161.315-56.11v0c31.562-14.027 52.603-42.082 52.603-73.644v-80.658c0-28.055-17.534-56.11-56.11-56.11h-326.137v-31.562c-10.521-31.562-35.068-66.63-80.658-66.63zM483.945 910.904h-45.589c-73.644-3.507-115.726-38.575-136.767-66.63-35.068-42.082-38.575-94.685-35.068-115.726 7.014-35.068 10.521-94.685 7.014-112.219 0-3.507-3.507-7.014-3.507-7.014-3.507-10.521-7.014-21.041 0-59.616 10.521-45.589 24.548-66.63 31.562-77.151l3.507-7.014v-7.014c3.507-28.055 14.027-59.616 21.041-77.151s14.027-42.082 14.027-73.644c0-24.548 0-45.589-24.548-52.603-70.137-24.548-189.37-66.63-234.959-87.671-21.041-10.521-31.562-24.548-31.562-45.589v-115.726c0-7.014 3.507-21.041 21.041-21.041h789.041c17.534 0 21.041 10.521 21.041 21.041v80.658h375.233c3.507 0 7.014 0 7.014 7.014v80.658c0 7.014-7.014 21.041-21.041 28.055-35.068 14.027-115.726 42.082-168.329 56.11-24.548 7.014-24.548 24.548-24.548 42.082 0 21.041 7.014 38.575 14.027 52.603 7.014 10.521 14.027 31.562 14.027 52.603v7.014l3.507 7.014c3.507 7.014 14.027 17.534 21.041 49.096 3.507 24.548 3.507 31.562 0 38.575l-3.507 3.507c-3.507 14.027 0 56.11 3.507 84.164 3.507 10.521 0 45.589-21.041 73.644-14.027 17.534-42.082 38.575-91.178 42.082h-31.562c-45.589-3.507-73.644-24.548-87.671-42.082-21.041-28.055-24.548-63.123-21.041-73.644 3.507-24.548 7.014-70.137 7.014-80.658l3.507-10.521c-3.507-7.014-3.507-10.521 0-38.575 7.014-31.562 14.027-45.589 21.041-49.096l3.507-7.014v-7.014c3.507-17.534 10.521-38.575 14.027-52.603 7.014-14.027 10.521-31.562 10.521-52.603 0-17.534 0-35.068-21.041-42.082-42.082-10.521-98.192-31.562-133.26-45.589l-7.014-3.507-7.014 3.507c-49.096 17.534-98.192 35.068-136.767 45.589-24.548 7.014-24.548 28.055-24.548 52.603 0 28.055 10.521 52.603 21.041 73.644 7.014 17.534 17.534 49.096 21.041 77.151v7.014l3.507 7.014c7.014 7.014 21.041 31.562 31.562 77.151 7.014 38.575 3.507 49.096 0 59.616 0 3.507-3.507 3.507-3.507 7.014-3.507 17.534 0 77.151 7.014 115.726 3.507 21.041 0 73.644-35.068 115.726-24.548 24.548-63.123 56.11-140.274 63.123z" />
<glyph unicode="&#xe92d;" glyph-name="icon-delete" horiz-adv-x="956" d="M803.603-64h-651.020l-50.861 881.589h749.351l-47.47-881.589zM200.053-16.53h559.47l44.079 786.649h-647.629l44.079-786.649zM956.185 817.589h-105.113l-3.391-47.47h105.113v47.47zM105.113 817.589h-105.113v-47.47h105.113v47.47zM651.020 960h-345.854v-101.722h47.47v54.252h250.914v-54.252h47.47v101.722zM410.278 169.96l-33.907 356.026-47.47-3.391 33.907-356.026 47.47 3.391zM627.285 522.596l-47.47 3.391-33.907-356.026 47.47-3.391 33.907 356.026z" />
<glyph unicode="&#xe92e;" glyph-name="icon-working" horiz-adv-x="1161" d="M1132.85-64h-1104.63c-16.126 0-28.22 12.094-28.22 28.22v830.488c0 16.126 12.094 28.22 28.22 28.22h1104.63c16.126 0 28.22-12.094 28.22-28.22v-826.457c0-20.157-12.094-32.252-28.22-32.252zM56.441-7.559h1048.189v774.047h-1048.189v-774.047zM1104.63 306.898v165.291c0-60.472-48.378-108.85-108.85-108.85h-830.488c-60.472 0-108.85 48.378-108.85 108.85v-165.291c0 0 68.535 0 108.85 0h826.457c44.346 0 112.882 0 112.882 0zM717.606 766.488h-274.142c-16.126 0-28.22 12.094-28.22 28.22v92.724c0 40.315 32.252 72.567 72.567 72.567h185.449c40.315 0 72.567-32.252 72.567-72.567v-92.724c0-16.126-12.094-28.22-28.22-28.22zM471.685 822.929h217.701v64.504c0 8.063-8.063 16.126-16.126 16.126h-185.449c-8.063 0-16.126-8.063-16.126-16.126v-64.504zM882.898 423.811v141.102c0 16.126-12.094 28.22-28.22 28.22s-28.22-12.094-28.22-28.22v-137.071c0-16.126 12.094-28.22 28.22-28.22s28.22 12.094 28.22 24.189zM334.614 423.811v141.102c0 16.126-12.094 28.22-28.22 28.22s-32.252-12.094-32.252-28.22v-137.071c0-16.126 12.094-28.22 28.22-28.22s32.252 12.094 32.252 24.189z" />
<glyph unicode="&#xe92f;" glyph-name="icon-avatar" horiz-adv-x="930" d="M860.852-64h-793.015c-37.465 0-67.837 30.372-67.837 67.837v116.68c-0.054 1.186-0.085 2.577-0.085 3.975 0 39.346 24.54 72.961 59.15 86.372 45.404 19.888 160.388 61.269 238.061 85.012 0 2.374 0 5.427 0 8.48 0.147 2.32 0.23 5.032 0.23 7.762 0 16.207-2.945 31.727-8.329 46.053-11.057 23.589-20.019 52.056-25.184 81.826-18.755 28.484-31.895 59.987-37.432 94.040-3.881 13.315-6.015 27.123-6.015 41.43 0 16.992 3.011 33.28 8.528 48.361-0.239 2.066-0.197 5.651-0.197 9.246 0 30.459-3.005 60.217-8.735 88.992-0.366 4.251-0.849 12.519-0.849 20.9 0 50.285 17.369 96.513 46.434 133.012 40.833 50.191 102.647 82.654 172.084 84.019l48.731 0.004c70.728-0.758 133.697-33.33 175.379-84.057 29.044-36.504 46.406-82.764 46.406-133.079 0-8.345-0.478-16.578-1.407-24.674-5.099-26.3-8.069-57.689-8.069-89.772 0-1.6 0.007-3.198 0.022-4.794 5.445-14.011 8.599-30.498 8.599-47.721 0-14.226-2.152-27.949-6.148-40.862-5.489-34.375-18.624-65.871-37.54-93.041-5.002-31.104-13.962-59.569-26.181-86.228-7.495-12.924-13.082-30.682-14.676-49.577-0.033-3.875-0.033-6.588-0.033-8.962 76.317-23.065 189.265-62.071 237.43-82.761v0c38.373-15.18 65.489-50.958 67.825-93.341l0.012-116.275c0.005-0.304 0.008-0.662 0.008-1.021 0-37.23-29.991-67.454-67.13-67.833zM485.035 911.836h-44.094c-54.633-1.059-103.157-26.33-135.428-65.494-21.905-28.219-34.968-63.744-34.968-102.32 0-5.763 0.292-11.457 0.861-17.070 5.447-26.653 8.597-58.104 8.597-90.29 0-7.84-0.187-15.637-0.557-23.386-0.78-2.25-1.71-5.077-2.825-7.809-3.041-8.575-4.886-18.954-4.886-29.764s1.846-21.189 5.239-30.839c2.928-28.551 13.134-54.877 28.654-77.235l4.386-4.876v-7.123c4.398-28.896 12.336-54.918 23.478-79.161 7.319-17.419 12.008-39.786 12.008-63.248 0-3-0.077-5.982-0.228-8.944 0.017-25.023 0.017-43.679-23.726-51.141-76.317-22.386-197.067-66.141-242.517-86.153-17.993-6.325-30.661-23.172-30.661-42.977 0-1.229 0.049-2.446 0.144-3.65l-0.010-115.842c-0.059-0.558-0.093-1.205-0.093-1.86 0-10.303 8.352-18.655 18.655-18.655 0.87 0 1.726 0.060 2.564 0.175l791.222-0.011c0.741-0.104 1.597-0.164 2.467-0.164 10.303 0 18.655 8.352 18.655 18.655 0 0.655-0.034 1.302-0.1 1.94l0.007 115.921c-2.425 22.921-17.808 41.713-38.598 49.056-50.269 20.816-170.001 62.536-243.943 84.244-24.421 7.801-24.421 26.117-24.421 51.895 1.38 26.769 8.625 51.559 20.466 73.506 9.917 21.592 17.854 47.728 22.062 75.094l0.21 8.783 4.749 5.427c16.017 21.668 27.107 47.917 31.102 76.44 3.358 9.939 5.24 20.376 5.24 31.252s-1.882 21.312-5.338 31.001c0.201 2.408-1.495 4.104-2.174 6.139-0.48 7.888-0.753 17.11-0.753 26.395 0 31.34 3.114 61.954 9.049 91.547 0.009 1.918 0.296 7.578 0.296 13.305 0 38.607-13.057 74.164-34.996 102.497-33.411 39.549-83.49 64.74-139.452 64.74-0.121 0-0.243 0-0.364 0z" />
<glyph unicode="&#xe930;" glyph-name="icon-education2" horiz-adv-x="1430" d="M1186.54 179.81c-16.254 0-28.444 12.19-28.444 28.444v288.508c-12.19 24.381-158.476 69.079-406.349 69.079s-394.159-44.698-406.349-69.079v-288.508c0-16.254-12.19-28.444-28.444-28.444s-28.444 12.19-28.444 28.444v288.508c0 97.524 292.571 125.968 463.238 125.968s463.238-28.444 463.238-125.968v-288.508c0-16.254-12.19-28.444-28.444-28.444zM751.746 82.286c-170.667 0-463.238 24.381-463.238 125.968s292.571 125.968 463.238 125.968 463.238-24.381 463.238-125.968-292.571-125.968-463.238-125.968zM349.46 208.254c20.317-24.381 162.54-69.079 406.349-69.079s386.032 40.635 406.349 69.079c-20.317 24.381-162.54 69.079-406.349 69.079s-390.095-44.698-406.349-69.079zM1158.095 204.19v0 0zM125.968 33.524c-16.254 0-28.444 12.19-28.444 28.444v532.317c0 16.254 12.19 28.444 28.444 28.444s28.444-12.19 28.444-28.444v-532.317c0-16.254-12.19-28.444-28.444-28.444zM125.968-64c-69.079 0-125.968 56.889-125.968 125.968s56.889 125.968 125.968 125.968c69.079 0 125.968-56.889 125.968-125.968s-56.889-125.968-125.968-125.968zM125.968 131.048c-36.571 0-69.079-28.444-69.079-69.079s28.444-69.079 69.079-69.079 69.079 28.444 69.079 69.079-32.508 69.079-69.079 69.079zM1186.54 452.063c-12.19 0-20.317 4.063-24.381 16.254-8.127 12.19 0 32.508 12.19 40.635l166.603 85.333-589.206 304.762-589.206-304.762 166.603-85.333c12.19-8.127 20.317-24.381 12.19-40.635-8.127-12.19-24.381-20.317-40.635-12.19l-211.302 113.778c-12.19 4.063-16.254 12.19-16.254 24.381s4.063 20.317 16.254 24.381l650.159 337.27c8.127 4.063 16.254 4.063 28.444 0l650.159-337.27c8.127-4.063 16.254-16.254 16.254-24.381s-4.063-20.317-16.254-24.381l-215.365-113.778c-8.127-4.063-12.19-4.063-16.254-4.063z" />
<glyph unicode="&#xe931;" glyph-name="icon-expand" horiz-adv-x="1752" d="M871.669-64c-33.851 0-67.702 16.926-84.628 33.851l-753.19 787.041c-42.314 50.777-42.314 126.942 0 169.256 50.777 42.314 126.942 42.314 169.256 0l668.562-693.95 668.562 693.95c42.314 50.777 118.479 50.777 169.256 0 50.777-42.314 50.777-118.479 0-169.256l-753.19-787.041c-16.926-25.388-50.777-33.851-84.628-33.851z" />
<glyph unicode="&#xe932;" glyph-name="icon-collapse" horiz-adv-x="1752" d="M1624.86-64c-33.851 0-59.24 8.463-84.628 33.851l-668.562 693.95-668.562-693.95c-42.314-50.777-118.479-50.777-169.256 0-50.777 42.314-50.777 118.479 0 169.256l753.19 787.041c25.388 16.926 50.777 33.851 84.628 33.851s67.702-16.926 84.628-33.851l753.19-787.041c42.314-50.777 42.314-126.942 0-169.256-16.926-25.388-50.777-33.851-84.628-33.851z" />
<glyph unicode="&#xe933;" glyph-name="icon-next2" horiz-adv-x="599" d="M598.57 450.473c0-19.787-9.894-39.575-19.787-49.469l-460.058-440.271c-29.681-24.734-74.203-24.734-98.937 0-24.734 29.681-24.734 74.203 0 98.937l405.643 390.802-405.643 385.855c-29.681 24.734-29.681 69.256 0 98.937 24.734 29.681 69.256 29.681 98.937 0l460.058-440.271c14.841-9.894 19.787-24.734 19.787-44.522z" />
<glyph unicode="&#xe934;" glyph-name="icon-back2" horiz-adv-x="599" d="M598.57 890.744c0-19.787-4.947-34.628-19.787-49.469l-405.643-390.802 405.643-390.802c29.681-24.734 29.681-69.256 0-98.937-24.734-29.681-69.256-29.681-98.937 0l-460.058 440.271c-14.841 14.841-19.787 29.681-19.787 49.469s9.894 39.575 19.787 49.469l460.058 440.271c29.681 24.734 74.203 24.734 98.937 0 14.841-14.841 19.787-34.628 19.787-49.469z" />
<glyph unicode="&#xe935;" glyph-name="icon-view-outline" horiz-adv-x="1692" d="M848.314-64c-517.020 0-818.196 431.686-828.235 451.765-25.098 35.137-25.098 80.314 0 120.471 10.039 20.078 311.216 451.765 828.235 451.765s818.196-431.686 828.235-451.765v0c25.098-35.137 25.098-80.314 0-120.471-15.059-15.059-311.216-451.765-828.235-451.765zM848.314 889.726c-481.882 0-757.961-401.569-768-421.647-10.039-10.039-10.039-25.098 0-40.157s286.118-421.647 768-421.647c481.882 0 757.961 401.569 768 421.647 10.039 10.039 10.039 25.098 0 40.157v0c-10.039 15.059-286.118 421.647-768 421.647zM848.314 121.725c-15.059 0-30.118 0-45.176 5.020-85.333 10.039-165.647 55.216-215.843 125.49-110.431 145.569-80.314 351.373 65.255 461.804 70.275 55.216 155.608 75.294 240.941 65.255 0 0 0 0 0 0 85.333-20.078 160.627-65.255 215.843-135.529 110.431-145.569 80.314-351.373-65.255-461.804-55.216-40.157-125.49-60.235-195.765-60.235zM848.314 704c-55.216 0-110.431-20.078-155.608-50.196-110.431-85.333-135.529-245.961-50.196-361.412 40.157-55.216 100.392-90.353 170.667-100.392s135.529 10.039 190.745 50.196c110.431 85.333 135.529 245.961 50.196 361.412-40.157 55.216-100.392 90.353-170.667 100.392v0c-15.059 0-25.098 0-35.137 0z" />
<glyph unicode="&#xe936;" glyph-name="icon-date-time-outline" d="M512-64c-282.205 0-512 229.795-512 512s229.795 512 512 512 512-229.795 512-512-229.795-512-512-512zM512 903.559c-249.953 0-455.559-205.606-455.559-455.559s205.606-455.559 455.559-455.559 455.559 205.606 455.559 455.559-205.606 455.559-455.559 455.559zM528.126 419.78v229.795c0 24.189-20.157 40.315-40.315 40.315s-40.315-20.157-40.315-40.315v-249.953c0-12.094 4.031-20.157 12.094-28.22l129.008-129.008c8.063-8.063 20.157-12.094 28.22-12.094s20.157 4.031 28.22 12.094c16.126 16.126 16.126 44.346 0 60.472l-116.913 116.913z" />
<glyph unicode="&#xe937;" glyph-name="icon-view" horiz-adv-x="1741" d="M1730.021 491.116c-16.168 21.558-323.368 468.884-856.926 468.884-538.947 0-846.147-447.326-862.316-468.884-16.168-26.947-16.168-59.284 0-86.232 16.168-16.168 323.368-468.884 862.316-468.884s846.147 447.326 856.926 468.884c16.168 26.947 16.168 59.284 0 86.232zM1061.726 200.084c-53.895-43.116-118.568-64.674-188.632-64.674-16.168 0-26.947 0-43.116 5.389-80.842 10.779-156.295 53.895-204.8 123.958-102.4 140.126-75.453 334.147 64.674 441.937v0c64.674 48.505 150.905 70.063 231.747 59.284s156.295-53.895 204.8-123.958c97.011-145.516 70.063-339.537-64.674-441.937z" />
<glyph unicode="&#xe938;" glyph-name="icon-date-time" d="M512 960c-281.6 0-512-230.4-512-512s230.4-512 512-512 512 230.4 512 512-230.4 512-512 512zM657.067 230.4c-8.533-8.533-21.333-12.8-29.867-12.8s-21.333 4.267-29.867 12.8l-136.533 136.533c-8.533 8.533-12.8 21.333-12.8 29.867v268.8c0 25.6 21.333 42.667 42.667 42.667 25.6 0 42.667-21.333 42.667-42.667v-247.467l123.733-123.733c17.067-21.333 17.067-46.933 0-64z" />
<glyph unicode="&#xe939;" glyph-name="icon-comment-outline" horiz-adv-x="1199" d="M1020.016-64c-3.984 0-3.984 0-7.969 0l-231.097 71.72c-59.767-15.938-119.533-23.907-179.3-23.907-330.708 3.984-601.65 223.128-601.65 490.086s270.942 486.101 601.65 486.101 601.65-219.144 601.65-486.101c0-111.564-47.813-219.144-139.455-306.802l-15.938-203.206c0-7.969-3.984-15.938-11.953-19.922-3.984-3.984-7.969-7.969-15.938-7.969zM780.949 67.486c3.984 0 3.984 0 7.969 0l207.191-63.751 11.953 179.3c0 7.969 3.984 15.938 7.969 19.922 83.673 79.689 131.486 175.315 131.486 274.926 0 235.082-243.051 430.319-541.883 430.319s-549.852-195.237-549.852-434.303 243.051-430.319 545.868-430.319c59.767 0 115.549 7.969 171.331 23.907 3.984 0 3.984 0 7.969 0zM884.545 226.864h-414.381c-15.938 0-27.891 11.953-27.891 27.891s11.953 27.891 27.891 27.891h414.381c15.938 0 27.891-11.953 27.891-27.891s-11.953-27.891-27.891-27.891zM884.545 414.132h-577.743c-15.938 0-27.891 11.953-27.891 27.891s11.953 27.891 27.891 27.891h577.743c15.938 0 27.891-11.953 27.891-27.891s-11.953-27.891-27.891-27.891zM884.545 601.401h-577.743c-15.938 0-27.891 11.953-27.891 27.891s11.953 27.891 27.891 27.891h577.743c15.938 0 27.891-11.953 27.891-27.891s-11.953-27.891-27.891-27.891z" />
<glyph unicode="&#xe93a;" glyph-name="icon-comment" horiz-adv-x="1209" d="M602.601 960c-332.905 0-602.601-214.914-602.601-484.609 0-265.481 269.695-484.609 602.601-484.609 67.424 0 130.634 8.428 189.63 25.284l252.84-80.066 12.642 227.556c92.708 84.28 147.49 193.844 147.49 311.835 4.214 269.695-265.481 484.609-602.601 484.609zM906.008 214.123h-438.255c-16.856 0-29.498 12.642-29.498 29.498s12.642 29.498 29.498 29.498h438.255c16.856 0 29.498-12.642 29.498-29.498s-12.642-29.498-29.498-29.498zM906.008 412.181h-611.029c-16.856 0-29.498 12.642-29.498 29.498s12.642 29.498 29.498 29.498h611.029c16.856 0 29.498-12.642 29.498-29.498s-12.642-29.498-29.498-29.498zM906.008 610.239h-611.029c-16.856 0-29.498 12.642-29.498 29.498s12.642 29.498 29.498 29.498h611.029c16.856 0 29.498-12.642 29.498-29.498s-12.642-29.498-29.498-29.498z" />
<glyph unicode="&#xe93b;" glyph-name="icon-loved-outline" horiz-adv-x="1219" d="M607.307-64c-8.866 0-17.732 4.433-22.165 8.866l-478.753 478.753c-4.433 4.433-106.39 106.39-106.39 217.212 0 177.316 141.853 319.169 319.169 319.169 132.987 0 243.81-88.658 288.139-132.987 44.329 44.329 155.152 132.987 288.139 132.987 177.316 0 319.169-141.853 319.169-319.169 0-110.823-101.957-212.779-106.39-212.779l-478.753-483.186c-4.433-8.866-13.299-8.866-22.165-8.866zM319.169 897.939c-141.853 0-257.108-115.255-257.108-257.108 0-70.926 62.061-146.286 88.658-168.45l461.022-461.022 461.022 461.022c0 0 88.658 88.658 88.658 168.45 0 141.853-115.255 257.108-257.108 257.108s-265.974-132.987-265.974-132.987c-13.299-13.299-35.463-13.299-48.762 0-4.433 0-124.121 132.987-270.407 132.987z" />
<glyph unicode="&#xe93c;" glyph-name="icon-loved" horiz-adv-x="1232" d="M920.184 960c169.88 0 306.728-141.567 306.728-306.728 0-103.816-103.816-202.912-103.816-202.912l-509.641-514.359-509.641 509.641c0 0-103.816 99.097-103.816 202.912 0 169.88 136.848 311.447 306.728 311.447s306.728-155.723 306.728-155.723 141.567 155.723 306.728 155.723z" />
<glyph unicode="&#xe93d;" glyph-name="icon-share-outline2" horiz-adv-x="1755" d="M41.918-64c-11.977 0-17.965 5.988-29.942 11.977-17.965 11.977-17.965 35.93-11.977 53.895 11.977 17.965 17.965 35.93 29.942 47.906 239.532 401.216 586.854 616.795 1059.93 658.713h11.977v209.591c0 17.965 11.977 29.942 23.953 35.93 17.965 5.988 35.93 5.988 47.906-5.988l562.901-443.134c11.977-5.988 17.965-17.965 17.965-35.93s-5.988-23.953-17.965-29.942l-562.901-449.123c-11.977-11.977-29.942-11.977-41.918-5.988s-23.953 23.953-23.953 35.93v221.567c-53.895 5.988-107.789 5.988-161.684 5.988-257.497 0-491.041-59.883-688.655-167.673-59.883-29.942-137.731-89.825-185.637-137.731-11.977-5.988-17.965-5.988-29.942-5.988zM1125.801 331.228h29.942c23.953 0 35.93-17.965 35.93-41.918v-173.661l449.123 359.298-449.123 359.298v-161.684c0-23.953-17.965-41.918-41.918-41.918l-53.895-5.988c-371.275-35.93-664.702-191.626-886.269-467.088 0 0 5.988 0 5.988 5.988 209.591 119.766 455.111 179.649 730.573 179.649 59.883-5.988 119.766-5.988 179.649-11.977v0z" />
<glyph unicode="&#xe93e;" glyph-name="icon-like-outline2" horiz-adv-x="1081" d="M212.992-64h-184.32c-16.384 0-28.672 12.288-28.672 28.672v483.328c0 16.384 12.288 28.672 28.672 28.672h184.32c16.384 0 28.672-12.288 28.672-28.672v-487.424c0-12.288-12.288-24.576-28.672-24.576zM57.344-6.656h126.976v425.984h-126.976v-425.984zM409.6-31.232c-20.48 0-36.864 4.096-53.248 4.096-20.48 4.096-40.96 0-53.248 12.288l-24.576 32.768c-4.096 4.096-8.192 12.288-8.192 20.48v372.736c0 8.192 4.096 20.48 12.288 24.576 36.864 24.576 61.44 40.96 73.728 53.248 28.672 24.576 159.744 237.568 167.936 270.336 0 24.576-4.096 151.552-4.096 151.552 0 8.192 0 12.288 4.096 16.384 0 4.096 40.96 53.248 126.976 20.48 4.096-4.096 12.288-8.192 12.288-12.288 4.096-4.096 57.344-106.496 61.44-188.416 0 0 0-4.096 0-8.192s-16.384-114.688-28.672-180.224h299.008c45.056 0 81.92-28.672 81.92-73.728 4.096-32.768-12.288-69.632-45.056-94.208 16.384-16.384 20.48-40.96 20.48-61.44-4.096-28.672-20.48-57.344-45.056-73.728 12.288-16.384 20.48-36.864 20.48-57.344-4.096-28.672-20.48-57.344-45.056-77.824 12.288-16.384 16.384-32.768 16.384-53.248-4.096-45.056-45.056-94.208-114.688-94.208l-475.136-4.096zM339.968 34.304c8.192 0 16.384-4.096 28.672-4.096 12.288-4.096 28.672-4.096 45.056-4.096h479.232c36.864 0 57.344 20.48 57.344 40.96 0 8.192 0 16.384-12.288 20.48-8.192 0-16.384 4.096-20.48 12.288s-4.096 16.384-4.096 24.576l4.096 12.288c4.096 12.288 12.288 20.48 24.576 20.48 20.48 4.096 36.864 24.576 36.864 40.96 0 8.192 0 20.48-20.48 24.576-16.384 4.096-24.576 20.48-20.48 36.864l4.096 12.288c4.096 12.288 12.288 20.48 24.576 20.48 20.48 4.096 36.864 24.576 40.96 40.96 0 4.096 0 16.384-24.576 24.576-16.384 4.096-24.576 20.48-20.48 32.768l4.096 12.288c4.096 12.288 12.288 20.48 24.576 20.48 28.672 4.096 40.96 32.768 40.96 49.152 0 12.288-8.192 20.48-24.576 20.48h-331.776c-8.192 0-16.384 4.096-24.576 12.288-4.096 8.192-8.192 16.384-4.096 24.576 12.288 45.056 32.768 184.32 36.864 208.896-4.096 57.344-36.864 126.976-49.152 155.648-20.48 8.192-32.768 4.096-40.96 0 0-32.768 4.096-118.784 4.096-139.264 0-45.056-151.552-282.624-188.416-311.296-12.288-12.288-36.864-28.672-69.632-49.152v-360.448z" />
<glyph unicode="&#xe93f;" glyph-name="icon-64" horiz-adv-x="1820" d="M984.866 281.682c-286.981 0-547.873-65.223-769.631-189.146-65.223-39.134-143.49-97.834-215.236-156.535 13.045 19.567 19.567 39.134 32.611 52.178 254.369 423.949 619.618 652.229 1115.312 697.885l58.701 6.522v267.414l613.096-489.172-613.096-489.172v286.981h-32.611c-65.223 13.045-123.924 13.045-189.146 13.045z" />
<glyph unicode="&#xe940;" glyph-name="icon-like2" horiz-adv-x="1085" d="M195.254-64h-195.254v516.339h195.254v-516.339zM1015.322 395.932c82.441 13.017 99.797 134.508 13.017 138.847h-351.458c13.017 52.068 39.051 225.627 39.051 225.627-8.678 82.441-65.085 190.915-65.085 190.915-65.085 26.034-95.458-8.678-95.458-8.678s4.339-134.508 4.339-164.881c0-30.373-151.864-277.695-190.915-308.068-21.695-17.356-56.407-39.051-82.441-56.407v-394.847l30.373-30.373c26.034 0 52.068-8.678 91.119-8.678h507.661c104.136 0 117.153 117.153 52.068 125.831l4.339 13.017c65.085 8.678 104.136 108.475 21.695 130.169l4.339 13.017c60.746 4.339 108.475 104.136 21.695 130.169l-4.339 4.339z" />
<glyph unicode="&#xe941;" glyph-name="icon-calendar-outline" horiz-adv-x="1114" d="M908.146 182.657h-265.343v265.343h265.343v-265.343zM1113.693-37.839v706.336c0 14.949-11.212 26.161-26.161 26.161h-1061.372c-14.949 0-26.161-11.212-26.161-26.161v-706.336c0-14.949 11.212-26.161 26.161-26.161h1061.372c14.949 0 26.161 11.212 26.161 26.161zM52.321 642.336h1005.314v-654.015h-1005.314v654.015zM1113.693 668.496v175.65c0 14.949-11.212 26.161-26.161 26.161h-1061.372c-14.949 0-26.161-11.212-26.161-26.161v-175.65c0-14.949 11.212-26.161 26.161-26.161h1061.372c14.949 0 26.161 11.212 26.161 26.161zM52.321 817.985h1005.314v-123.328h-1005.314v123.328zM893.197 758.19v175.65c0 14.949-11.212 26.161-26.161 26.161s-26.161-11.212-26.161-26.161v-175.65c0-14.949 11.212-26.161 26.161-26.161s26.161 11.212 26.161 26.161zM272.818 758.19v175.65c0 14.949-11.212 26.161-26.161 26.161s-26.161-11.212-26.161-26.161v-175.65c0-14.949 11.212-26.161 26.161-26.161s26.161 11.212 26.161 26.161zM467.153 272.35h-89.693v-89.693h89.693v89.693zM291.504 272.35h-89.693v-89.693h89.693v89.693zM291.504 448h-89.693v-89.693h89.693v89.693zM467.153 448h-89.693v-89.693h89.693v89.693z" />
<glyph unicode="&#xe942;" glyph-name="icon-calendar" horiz-adv-x="1143" d="M889.768 726.052c-15.341 0-26.846 11.506-26.846 26.846v180.255c0 15.341 11.506 26.846 26.846 26.846s26.846-11.506 26.846-26.846v-180.255c0-15.341-11.506-26.846-26.846-26.846zM1116.045 634.007h-1089.198c-15.341 0-26.846 11.506-26.846 26.846v180.255c0 15.341 11.506 26.846 26.846 26.846h1089.198c15.341 0 26.846-11.506 26.846-26.846v-180.255c0-15.341-11.506-26.846-26.846-26.846zM53.693 687.7h1031.67v126.562h-1031.67v-126.562zM253.124 726.052c-15.341 0-26.846 11.506-26.846 26.846v180.255c0 15.341 11.506 26.846 26.846 26.846s26.846-11.506 26.846-26.846v-180.255c0-15.341-11.506-26.846-26.846-26.846zM26.846 634.007v-698.007h1089.198v698.007h-1089.198zM299.146 154.607h-92.045v88.21h92.045v-88.21zM299.146 327.191h-92.045v88.21h92.045v-88.21zM479.401 154.607h-92.045v88.21h92.045v-88.21zM479.401 327.191h-92.045v88.21h92.045v-88.21zM931.955 154.607h-272.3v260.794h272.3v-260.794z" />
<glyph unicode="&#xe943;" glyph-name="icon-play-video" horiz-adv-x="912" d="M104.727-64c-19.394 0-34.909 3.879-50.424 11.636-34.909 23.273-54.303 65.939-54.303 120.242v764.121c0 54.303 19.394 93.091 54.303 116.364 34.909 19.394 81.455 15.515 128-11.636l655.515-380.121c46.545-27.152 73.697-65.939 73.697-104.727 0-42.667-27.152-77.576-73.697-104.727l-655.515-387.879c-27.152-15.515-50.424-23.273-77.576-23.273zM104.727 905.697c-7.758 0-15.515 0-23.273-3.879-15.515-11.636-27.152-38.788-27.152-69.818v-764.121c0-31.030 11.636-58.182 27.152-65.939 19.394-15.515 46.545-11.636 73.697 7.758l655.515 380.121c27.152 15.515 46.545 38.788 46.545 58.182s-15.515 42.667-46.545 58.182l-655.515 384c0 0 0 0 0 0-19.394 7.758-34.909 15.515-50.424 15.515z" />
<glyph unicode="&#xe944;" glyph-name="icon-location" horiz-adv-x="751" d="M375.467-64l-320.853 474.453c-34.133 58.027-54.613 122.88-54.613 187.733 0 201.387 167.253 361.813 375.467 361.813s375.467-160.427 375.467-361.813c0-64.853-17.067-129.707-54.613-187.733l-320.853-474.453zM375.467 912.213c-180.907 0-327.68-139.947-327.68-314.027 0-58.027 17.067-112.64 47.787-160.427l279.893-413.013 279.893 416.427c30.72 47.787 44.373 102.4 44.373 160.427 0 170.667-146.773 310.613-324.267 310.613zM375.467 434.347c-95.573 0-174.080 75.093-174.080 167.253s78.507 167.253 174.080 167.253 174.080-75.093 174.080-167.253c0-92.16-78.507-167.253-174.080-167.253zM375.467 721.067c-68.267 0-126.293-54.613-126.293-119.467s58.027-119.467 126.293-119.467 126.293 54.613 126.293 119.467-58.027 119.467-126.293 119.467z" />
<glyph unicode="&#xe945;" glyph-name="icon-message2" horiz-adv-x="1189" d="M1037.791-64l-262.034 82.747c-58.613-13.791-117.226-24.135-179.286-24.135-330.99 3.448-596.471 217.212-596.471 482.694s265.481 482.694 596.471 482.694 596.471-217.212 596.471-482.694c0-113.778-48.269-217.212-137.912-306.855l-17.239-234.451zM775.758 70.465l217.212-68.956 10.343 193.077 6.896 6.896c86.195 79.3 131.017 175.838 131.017 275.825 0 241.347-244.795 434.424-544.754 434.424s-548.202-193.077-548.202-434.424c0-237.899 244.795-430.976 548.202-430.976 58.613 0 117.226 6.896 172.391 24.135h6.896zM882.64 235.96h-413.737v48.269h413.737v-48.269zM882.64 422.141h-579.232v48.269h579.232v-48.269zM882.64 608.323h-579.232v48.269h579.232v-48.269z" />
<glyph unicode="&#xe946;" glyph-name="icon-flash" horiz-adv-x="635" d="M246.747-64v441.060h-246.747l388.627 582.94v-441.060h246.747l-388.627-582.94zM80.193 420.241h209.735v-342.361l265.253 397.88h-209.735v339.277l-265.253-394.795z" />
<glyph unicode="&#xe947;" glyph-name="icon-camera-roll" horiz-adv-x="1513" d="M341.333 519.968c-78.137 0-135.711 61.687-135.711 135.711 0 78.137 57.574 139.823 135.711 139.823 74.024 0 135.711-61.687 135.711-135.711 0-78.137-61.687-139.823-135.711-139.823zM341.333 733.815c-45.237 0-78.137-37.012-78.137-78.137 0-45.237 37.012-78.137 78.137-78.137 45.237 0 78.137 37.012 78.137 78.137 0 45.237-37.012 78.137-78.137 78.137zM1505.157-59.888h-1468.145v90.474l382.458 390.683 164.498-168.61 378.345 390.683 542.843-555.181v-148.048zM94.586-2.313h1352.996v65.799l-485.269 493.494-378.345-390.683-164.498 168.61-320.771-333.108v-4.112zM1513.382-64h-1513.382v1024h1513.382v-1024zM57.574-6.426h1394.12v908.851h-1394.12v-908.851z" />
<glyph unicode="&#xe948;" glyph-name="icon-scan-qr" horiz-adv-x="1396" d="M1377.745 694.691v-749.382c0-18.618 0-32.582-13.964-32.582h-1326.545c-18.618 0-55.855 13.964-55.855 32.582v749.382c0 18.618 37.236 13.964 55.855 13.964h311.855l32.582 200.145c4.655 13.964 18.618 32.582 32.582 32.582h572.509c13.964 0 27.927-13.964 32.582-32.582l32.582-200.145h311.855c18.618-4.655 13.964 4.655 13.964-13.964zM479.418 373.527c0-121.018 97.745-218.764 218.764-218.764s218.764 97.745 218.764 218.764-93.091 218.764-218.764 218.764-218.764-97.745-218.764-218.764z" />
<glyph unicode="&#xe949;" glyph-name="icon-scan-qr-outline" horiz-adv-x="1373" d="M1372.987-64h-1372.987v803.587h339.803l36.735 220.413h619.91l36.735-220.413h339.803v-803.587zM64.287 0.287h1244.413v675.013h-330.619l-36.735 220.413h-509.704l-36.735-220.413h-330.619v-675.013zM684.197 142.637c-137.758 0-252.556 110.206-252.556 247.964s114.798 247.964 252.556 247.964 252.556-110.206 252.556-247.964-110.206-247.964-252.556-247.964zM684.197 574.278c-101.022 0-183.677-82.655-183.677-183.677s82.655-183.677 183.677-183.677 183.677 82.655 183.677 183.677-78.063 183.677-183.677 183.677z" />
<glyph unicode="&#xe94a;" glyph-name="-icon-save-image-" horiz-adv-x="750" d="M749.657-64h-749.657v44.66h749.657v-44.66zM398.754 960h-44.66v-791.128h44.66v791.128zM682.667 443.215l-31.9 31.9-274.343-274.343-274.343 274.343-31.9-31.9 309.433-309.433 303.053 309.433z" />
<glyph unicode="&#xe94b;" glyph-name="icon-business-list" horiz-adv-x="1331" d="M1330.749 427.7h-857.092v63.154h861.603v-63.154zM1330.749 851.736h-857.092v-63.154h861.603v63.154zM1330.749 129.974h-857.092v-63.154h861.603v63.154zM356.37 960h-356.37v-302.238h356.37v302.238zM63.154 896.846h230.062v-171.418h-230.062v171.418zM356.37 599.119h-356.37v-302.238h356.37v302.238zM63.154 535.965h230.062v-171.418h-230.062v171.418zM356.37 238.238h-356.37v-302.238h356.37v302.238zM63.154 175.084h230.062v-171.418h-230.062v171.418z" />
<glyph unicode="&#xe94c;" glyph-name="icon-business-thumbnails" horiz-adv-x="1204" d="M522.987 494.146h-492.223c-17.579 0-30.764 13.185-30.764 30.764v404.326c0 17.579 13.185 30.764 30.764 30.764h492.223c17.579 0 30.764-13.185 30.764-30.764v-404.326c0-17.579-13.185-30.764-30.764-30.764zM61.528 555.674h430.695v342.798h-430.695v-342.798zM1173.425 494.146h-492.223c-17.579 0-30.764 13.185-30.764 30.764v404.326c0 17.579 13.185 30.764 30.764 30.764h492.223c17.579 0 30.764-13.185 30.764-30.764v-404.326c0-17.579-13.185-30.764-30.764-30.764zM711.966 555.674h430.695v342.798h-430.695v-342.798zM522.987-64h-492.223c-17.579 0-30.764 13.185-30.764 30.764v404.326c0 17.579 13.185 30.764 30.764 30.764h492.223c17.579 0 30.764-13.185 30.764-30.764v-404.326c0-13.185-13.185-30.764-30.764-30.764zM61.528 1.923h430.695v342.798h-430.695v-342.798zM1173.425-64h-492.223c-17.579 0-30.764 13.185-30.764 30.764v404.326c0 17.579 13.185 30.764 30.764 30.764h492.223c17.579 0 30.764-13.185 30.764-30.764v-404.326c0-13.185-13.185-30.764-30.764-30.764zM711.966 1.923h430.695v342.798h-430.695v-342.798z" />
<glyph unicode="&#xe94d;" glyph-name="icon-refine-filter" horiz-adv-x="1050" d="M1049.784 794.245h-637.237v55.252h637.237v-55.252zM132.604 849.496h-132.604v-51.568h132.604v51.568zM1049.784 112.806h-655.655v-51.568h655.655v51.568zM132.604 112.806h-132.604v-51.568h132.604v51.568zM655.655 477.468h-655.655v-51.568h655.655v51.568zM1049.784 477.468h-132.604v-51.568h132.604v51.568zM412.547 960h-302.043v-279.942h298.36v279.942zM162.072 908.432h195.223v-176.806h-195.223v176.806zM942.964 591.655h-298.36v-279.942h298.36v279.942zM696.173 540.086h195.223v-176.806h-195.223v176.806zM405.18 215.942h-298.36v-279.942h298.36v279.942zM158.388 164.374h195.223v-176.806h-195.223v176.806z" />
<glyph unicode="&#xe94e;" glyph-name="icon-claimer-list" horiz-adv-x="1318" d="M155.826 648.348c-84.591 0-155.826 71.235-155.826 155.826s71.235 155.826 155.826 155.826c84.591 0 155.826-71.235 155.826-155.826s-71.235-155.826-155.826-155.826zM155.826 897.67c-53.426 0-93.496-40.070-93.496-93.496s40.070-93.496 93.496-93.496 93.496 40.070 93.496 93.496-40.070 93.496-93.496 93.496zM155.826 292.174c-84.591 0-155.826 71.235-155.826 155.826s71.235 155.826 155.826 155.826c84.591 0 155.826-71.235 155.826-155.826s-71.235-155.826-155.826-155.826zM155.826 541.496c-53.426 0-93.496-40.070-93.496-93.496s40.070-93.496 93.496-93.496 93.496 40.070 93.496 93.496-40.070 93.496-93.496 93.496zM155.826-64c-84.591 0-155.826 66.783-155.826 155.826 0 84.591 71.235 155.826 155.826 155.826s155.826-71.235 155.826-155.826c0-89.043-71.235-155.826-155.826-155.826zM155.826 185.322c-53.426 0-93.496-40.070-93.496-93.496s40.070-93.496 93.496-93.496 93.496 40.070 93.496 93.496-40.070 93.496-93.496 93.496zM1317.843 474.713h-850.365v-62.33h850.365v62.33zM1317.843 830.887h-850.365v-62.33h850.365v62.33zM1317.843 118.539h-850.365v-62.33h850.365v62.33z" />
<glyph unicode="&#xe94f;" glyph-name="icon-claimer-thumbnails" horiz-adv-x="2926" d="M2413.714-64c-284.444 0-512 227.556-512 512s235.683 512 512 512 512-227.556 512-512-227.556-512-512-512zM2413.714 846.222c-219.429 0-398.222-178.794-398.222-398.222s178.794-398.222 398.222-398.222 398.222 178.794 398.222 398.222c0 219.429-178.794 398.222-398.222 398.222zM1462.857-64c-284.444 0-512 227.556-512 512s227.556 512 512 512 512-227.556 512-512-235.683-512-512-512zM1462.857 846.222c-219.429 0-398.222-178.794-398.222-398.222s178.794-398.222 398.222-398.222c219.429 0 398.222 178.794 398.222 398.222-8.127 219.429-178.794 398.222-398.222 398.222zM512-64c-284.444 0-512 227.556-512 512s227.556 512 512 512 512-227.556 512-512-227.556-512-512-512zM512 846.222c-219.429 0-398.222-178.794-398.222-398.222s178.794-398.222 398.222-398.222c219.429 0 398.222 178.794 398.222 398.222s-178.794 398.222-398.222 398.222z" />
<glyph unicode="&#xe950;" glyph-name="icon-slider" horiz-adv-x="3739" d="M3227.429 960c-282.77 0-512-229.23-512-512s229.23-512 512-512c282.77 0 512 229.23 512 512s-229.23 512-512 512zM3227.429 64c-212.077 0-384 171.923-384 384s171.923 384 384 384c212.077 0 384-171.923 384-384s-171.923-384-384-384zM1892.571 960c-282.77 0-512-229.23-512-512s229.23-512 512-512c282.77 0 512 229.23 512 512s-229.23 512-512 512zM1892.571 64c-212.077 0-384 171.923-384 384s171.923 384 384 384c212.077 0 384-171.923 384-384s-171.923-384-384-384zM1024 448c0-282.77-229.23-512-512-512s-512 229.23-512 512c0 282.77 229.23 512 512 512s512-229.23 512-512z" />
</font>
</defs>
</svg>
